<?xml version="1.0" standalone="no"?>
<!DOCTYPE svg PUBLIC "-//W3C//DTD SVG 20010904//EN"
 "http://www.w3.org/TR/2001/REC-SVG-20010904/DTD/svg10.dtd">
<svg version="1.0" xmlns="http://www.w3.org/2000/svg"
 width="720.000000pt" height="380.000000pt" viewBox="0 0 720.000000 380.000000"
 preserveAspectRatio="xMidYMid meet">

<g transform="translate(0.000000,380.000000) scale(0.100000,-0.100000)"
fill="#000000" stroke="none">
<path d="M0 1895 l0 -1895 3600 0 3600 0 0 1895 0 1895 -3600 0 -3600 0 0
-1895z m1495 1483 c55 -10 111 -26 124 -35 23 -15 23 -16 16 -141 -9 -156 -35
-284 -74 -368 -60 -128 -254 -286 -330 -269 -48 10 -141 76 -204 144 -106 115
-141 217 -157 454 -10 159 -6 178 46 195 151 51 383 59 579 20z m745 -68 c0
-37 2 -40 19 -30 28 14 38 13 61 -10 15 -15 20 -33 20 -74 0 -30 -4 -58 -10
-61 -6 -4 -10 11 -10 37 0 85 -23 115 -60 78 -15 -15 -20 -34 -20 -70 0 -27
-4 -50 -10 -50 -6 0 -10 43 -10 110 0 67 4 110 10 110 6 0 10 -18 10 -40z
m1360 0 c0 -37 2 -40 19 -30 28 14 38 13 61 -10 15 -15 20 -33 20 -74 0 -30
-4 -58 -10 -61 -6 -4 -10 11 -10 37 0 67 -9 88 -36 88 -30 0 -44 -27 -44 -84
0 -25 -4 -46 -10 -46 -6 0 -10 43 -10 110 0 67 4 110 10 110 6 0 10 -18 10
-40z m740 -68 l0 -108 -45 -2 c-48 -2 -71 13 -81 54 -15 60 33 117 81 96 24
-11 25 -10 25 28 0 22 5 40 10 40 6 0 10 -43 10 -108z m1560 68 c0 -38 1 -40
21 -29 37 19 66 -2 74 -54 8 -52 4 -88 -10 -88 -5 1 -12 27 -15 58 -4 52 -8
58 -29 61 -31 5 -41 -12 -41 -75 0 -29 -4 -53 -10 -53 -6 0 -10 43 -10 110 0
67 4 110 10 110 6 0 10 -18 10 -40z m370 31 c0 -5 -9 -11 -20 -14 -27 -7 -25
-35 3 -47 l22 -9 -22 -7 c-21 -6 -23 -13 -23 -71 0 -40 -4 -62 -10 -58 -5 3
-10 31 -10 62 0 41 -5 59 -17 69 -17 13 -17 13 0 14 11 0 17 8 17 23 0 13 5
28 12 35 14 14 48 16 48 3z m-4242 -19 c3 -9 -3 -11 -22 -6 -27 6 -56 -9 -56
-30 0 -7 20 -26 45 -44 53 -37 60 -72 21 -97 -28 -19 -77 -16 -84 4 -3 9 2 11
17 6 60 -19 87 41 32 70 -28 14 -61 51 -61 67 0 5 9 17 21 29 22 22 79 23 87
1z m772 8 c0 -5 -4 -10 -10 -10 -5 0 -10 5 -10 10 0 6 5 10 10 10 6 0 10 -4
10 -10z m470 0 c0 -5 -4 -10 -10 -10 -5 0 -10 5 -10 10 0 6 5 10 10 10 6 0 10
-4 10 -10z m825 -5 c0 -5 -17 -11 -37 -13 -35 -3 -38 -6 -38 -33 0 -27 3 -29
35 -29 19 0 35 -4 35 -10 0 -5 -16 -10 -36 -10 -35 0 -35 -1 -32 -37 3 -36 5
-38 41 -41 55 -5 45 -22 -13 -22 l-50 0 0 106 0 105 48 -3 c26 -2 47 -7 47
-13z m75 5 c0 -5 -4 -10 -10 -10 -5 0 -10 5 -10 10 0 6 5 10 10 10 6 0 10 -4
10 -10z m2170 -30 c0 -11 7 -20 15 -20 8 0 15 -4 15 -10 0 -5 -7 -10 -15 -10
-11 0 -15 -13 -15 -54 0 -49 2 -55 23 -59 19 -3 20 -4 5 -11 -36 -16 -48 0
-48 64 0 47 -3 60 -15 60 -8 0 -15 4 -15 9 0 5 7 11 15 15 8 3 15 12 15 21 0
8 5 15 10 15 6 0 10 -9 10 -20z m-4176 -16 c26 -10 18 -24 -12 -24 -35 0 -52
-16 -52 -51 0 -34 24 -59 56 -59 13 0 24 -4 24 -10 0 -15 -53 -12 -77 5 -65
45 -12 167 61 139z m544 -10 c14 -10 22 -25 22 -45 0 -28 -2 -29 -45 -29 -32
0 -45 -4 -45 -14 0 -22 28 -39 55 -33 16 3 24 0 22 -7 -5 -16 -59 -19 -80 -4
-10 8 -21 32 -24 55 -5 35 -2 45 20 67 30 30 44 32 75 10z m380 -12 c6 -9 12
-26 12 -39 0 -21 -4 -23 -50 -23 -53 0 -61 -8 -33 -35 11 -12 25 -15 45 -11
21 4 28 2 26 -7 -7 -19 -56 -20 -84 -2 -19 12 -24 24 -24 60 0 35 5 47 27 64
28 23 59 20 81 -7z m122 13 c0 -8 -7 -15 -15 -15 -20 0 -35 -40 -35 -91 0 -21
-4 -39 -10 -39 -6 0 -10 32 -10 76 0 60 3 75 13 71 8 -3 20 -1 28 4 20 13 29
11 29 -6z m174 9 c22 -8 10 -24 -19 -24 -39 0 -39 -18 -1 -41 39 -23 48 -57
22 -78 -17 -15 -68 -11 -73 5 -2 6 8 9 26 6 46 -6 49 16 6 52 -49 42 -43 74
17 85 3 0 13 -2 22 -5z m140 0 c26 -10 18 -24 -12 -24 -35 0 -52 -16 -52 -51
0 -34 24 -59 56 -59 13 0 24 -4 24 -10 0 -5 -14 -10 -30 -10 -36 0 -80 38 -80
69 0 56 50 102 94 85z m316 -14 c11 -11 20 -31 20 -45 0 -23 -3 -25 -51 -25
-51 0 -51 0 -36 -22 11 -17 24 -23 47 -21 41 2 34 -21 -8 -25 -67 -7 -99 82
-47 133 29 30 49 31 75 5z m653 10 c15 0 17 -11 17 -82 0 -70 -3 -85 -22 -105
-21 -23 -51 -29 -82 -17 -26 10 -8 24 23 18 22 -5 32 -1 45 17 21 31 20 42 -3
29 -29 -15 -39 -13 -66 15 -33 32 -33 78 1 111 18 18 32 24 47 20 12 -3 30 -6
40 -6z m157 -10 c11 -11 20 -31 20 -45 0 -23 -3 -25 -51 -25 -51 0 -51 0 -36
-22 11 -17 24 -23 47 -21 41 2 34 -21 -8 -25 -67 -7 -99 82 -47 133 29 30 49
31 75 5z m158 4 c19 -13 22 -24 22 -80 0 -36 -4 -64 -10 -64 -5 0 -10 24 -10
53 0 63 -10 80 -41 75 -21 -3 -25 -9 -29 -61 -7 -83 -24 -76 -28 12 -2 59 0
72 11 68 8 -3 20 -1 28 4 20 12 31 11 57 -7z m177 -9 c50 -49 22 -135 -44
-135 -75 0 -97 122 -28 150 35 14 46 12 72 -15z m129 19 c26 -10 18 -24 -13
-24 -44 0 -47 -17 -7 -41 39 -23 48 -57 22 -78 -17 -15 -68 -11 -73 5 -2 7 8
9 27 6 22 -3 32 0 37 14 4 11 2 19 -6 22 -7 2 -24 14 -38 26 -37 32 -24 66 29
75 3 0 13 -2 22 -5z m120 0 c26 -10 18 -24 -14 -24 -34 0 -42 -26 -12 -37 25
-9 52 -34 52 -49 0 -22 -30 -44 -60 -44 -41 0 -47 18 -8 22 43 4 47 28 8 50
-42 24 -49 47 -21 70 25 20 31 21 55 12z m144 -11 c12 -10 24 -30 28 -45 6
-28 6 -28 -45 -28 -37 0 -51 -4 -51 -14 0 -24 28 -39 61 -32 22 4 29 2 27 -7
-6 -17 -66 -21 -85 -6 -52 44 -27 142 38 148 4 1 16 -7 27 -16z m167 3 c16
-11 20 -27 20 -75 0 -77 -18 -80 -25 -4 -4 52 -8 58 -29 61 -31 5 -41 -12 -41
-75 0 -29 -4 -53 -10 -53 -6 0 -10 32 -10 76 0 60 3 75 13 71 8 -3 20 -1 28 4
20 12 32 11 54 -5z m129 8 c26 -10 18 -24 -14 -24 -39 0 -38 -20 3 -45 38 -24
46 -53 21 -72 -23 -17 -74 -17 -74 0 0 9 9 12 29 9 45 -6 49 24 6 49 -39 23
-47 61 -17 78 20 12 25 13 46 5z m150 0 c28 -11 17 -24 -19 -24 -28 0 -38 -5
-47 -26 -18 -38 7 -78 50 -82 39 -4 32 -22 -9 -22 -76 0 -97 121 -26 150 28
11 32 11 51 4z m304 -10 c19 -13 22 -24 22 -78 l0 -63 -46 1 c-86 2 -93 75 -9
90 47 9 40 29 -11 36 -36 5 -37 6 -19 17 27 16 36 16 63 -3z m-3718 -44 c7
-27 15 -50 19 -50 4 0 14 21 22 47 21 67 43 68 60 4 7 -28 16 -51 20 -51 3 0
12 20 19 45 12 42 26 63 36 53 9 -10 -44 -143 -57 -143 -8 0 -20 21 -29 53 -8
28 -18 52 -21 52 -4 0 -13 -24 -21 -52 -23 -84 -38 -71 -82 70 -5 16 -3 22 7
22 10 0 19 -18 27 -50z m390 -19 c0 -39 -4 -73 -10 -76 -6 -4 -10 22 -10 69 0
44 4 76 10 76 6 0 10 -30 10 -69z m150 62 c0 -3 -18 -30 -40 -59 -22 -29 -40
-56 -40 -59 0 -3 18 -5 40 -5 22 0 40 -4 40 -10 0 -5 -25 -10 -55 -10 -68 0
-70 10 -15 79 l40 51 -40 0 c-22 0 -40 5 -40 10 0 6 25 10 55 10 30 0 55 -3
55 -7z m320 -68 c0 -43 -4 -75 -10 -75 -6 0 -10 32 -10 75 0 43 4 75 10 75 6
0 10 -32 10 -75z m900 0 c0 -43 -4 -75 -10 -75 -6 0 -10 32 -10 75 0 43 4 75
10 75 6 0 10 -32 10 -75z m-1630 -225 c0 -5 -6 -10 -14 -10 -24 0 -26 -39 -3
-52 l21 -11 -23 -8 c-20 -8 -22 -14 -20 -66 2 -37 -1 -58 -9 -61 -8 -2 -12 16
-12 62 0 52 -3 66 -15 66 -8 0 -15 5 -15 10 0 6 7 10 15 10 8 0 15 7 15 16 0
27 20 54 40 54 11 0 20 -4 20 -10z m310 -103 l0 -103 -49 -2 c-42 -2 -53 2
-65 20 -21 29 -20 77 0 107 14 20 23 22 55 18 l39 -5 0 40 c0 23 4 37 10 33 6
-3 10 -51 10 -108z m-796 97 c29 -11 16 -24 -24 -24 -52 0 -80 -27 -80 -77 0
-51 32 -83 82 -83 21 0 38 -4 38 -10 0 -16 -83 -12 -107 5 -59 41 -47 151 19
180 37 16 50 18 72 9z m582 -32 c-23 -23 -33 -6 -10 19 12 13 20 16 22 9 3 -7
-3 -19 -12 -28z m325 5 c-11 -12 -23 -19 -25 -16 -9 9 25 50 36 43 6 -4 2 -14
-11 -27z m479 24 c0 -6 -4 -13 -10 -16 -5 -3 -10 1 -10 9 0 9 5 16 10 16 6 0
10 -4 10 -9z m790 -7 c0 -8 -4 -12 -10 -9 -5 3 -10 10 -10 16 0 5 5 9 10 9 6
0 10 -7 10 -16z m-880 -30 c0 -8 7 -14 15 -14 8 0 15 -4 15 -10 0 -5 -7 -10
-15 -10 -12 0 -15 -13 -15 -55 0 -42 3 -55 15 -55 8 0 15 -4 15 -10 0 -16 -47
-11 -54 6 -3 9 -6 38 -6 65 0 40 -3 49 -17 49 -16 1 -16 2 -2 13 8 7 18 20 22
30 8 20 27 14 27 -9z m-1116 -27 c9 -7 20 -31 23 -54 7 -52 -20 -83 -71 -83
-42 0 -66 29 -66 77 0 60 67 95 114 60z m176 -6 c15 -29 13 -134 -2 -129 -8 3
-12 18 -10 39 4 48 -13 89 -37 89 -27 0 -41 -29 -41 -84 0 -25 -4 -46 -10 -46
-6 0 -10 31 -10 73 l0 73 50 2 c40 2 51 -2 60 -17z m264 -3 c30 -43 21 -58
-34 -58 -34 0 -50 -4 -50 -13 0 -22 23 -37 58 -37 19 0 31 -4 27 -10 -7 -12
-65 -13 -82 -2 -18 12 -34 62 -27 86 17 57 79 76 108 34z m320 0 c30 -43 21
-58 -34 -58 -54 0 -55 -1 -40 -31 8 -13 21 -19 45 -19 19 0 35 -4 35 -10 0
-16 -72 -11 -92 7 -23 21 -24 89 -1 115 23 25 68 23 87 -4z m126 12 c0 -4 -8
-10 -18 -13 -19 -4 -32 -44 -32 -98 0 -16 -4 -29 -10 -29 -6 0 -10 31 -10 73
l0 73 35 1 c19 1 35 -3 35 -7z m128 -2 c7 -7 12 -39 12 -74 l0 -62 -52 2 c-51
1 -53 2 -56 31 -4 35 18 55 61 55 41 0 34 34 -8 37 -46 2 -47 2 -40 13 9 14
68 13 83 -2z m192 -63 c0 -43 -4 -75 -10 -75 -6 0 -10 32 -10 75 0 43 4 75 10
75 6 0 10 -32 10 -75z m146 67 c18 -11 34 -48 34 -76 0 -60 -91 -92 -124 -44
-22 31 -20 84 4 108 20 20 65 26 86 12z m184 -11 c15 -29 13 -134 -2 -129 -8
3 -15 29 -18 64 -4 48 -9 59 -24 62 -28 6 -46 -25 -46 -80 0 -26 -4 -48 -10
-48 -6 0 -10 31 -10 73 l0 73 50 2 c40 2 51 -2 60 -17z m225 10 c3 -5 -9 -11
-27 -13 -43 -4 -44 -19 -3 -46 55 -35 42 -82 -22 -82 -42 0 -43 18 -1 22 44 4
46 24 4 49 -37 21 -45 46 -24 67 14 14 64 16 73 3z m65 -40 c0 -65 7 -81 36
-81 29 0 44 31 44 91 0 21 5 39 10 39 6 0 10 -31 10 -73 l0 -73 -50 -2 c-40
-2 -51 2 -60 17 -13 25 -13 131 0 131 6 0 10 -22 10 -49z m170 -26 c0 -43 -4
-75 -10 -75 -6 0 -10 32 -10 75 0 43 4 75 10 75 6 0 10 -32 10 -75z m130 65
c0 -5 -13 -10 -30 -10 -39 0 -40 -24 -1 -44 34 -18 45 -41 31 -67 -12 -21 -74
-27 -85 -9 -4 6 8 10 29 10 29 0 36 4 36 19 0 11 -8 22 -19 26 -63 20 -60 85
4 85 19 0 35 -4 35 -10z m120 0 c0 -5 -13 -10 -30 -10 -41 0 -39 -23 5 -49 55
-32 42 -81 -21 -81 -18 0 -36 5 -39 10 -4 6 8 10 29 10 46 0 49 28 6 52 -29
16 -41 54 -23 71 10 11 73 8 73 -3z m144 -12 c30 -43 21 -58 -34 -58 -54 0
-55 -1 -40 -31 8 -13 21 -19 45 -19 19 0 35 -4 35 -10 0 -16 -72 -11 -92 7
-22 20 -24 80 -2 111 10 14 26 22 44 22 18 0 34 -8 44 -22z m-2084 -273 c0 -3
-9 -14 -20 -25 -26 -26 -25 -36 3 -44 l22 -7 -23 -9 c-21 -9 -23 -15 -21 -67
2 -37 -1 -58 -9 -61 -8 -2 -12 16 -12 62 0 56 -3 66 -17 66 -17 1 -17 1 0 14
9 7 17 20 17 29 0 19 27 47 46 47 8 0 14 -2 14 -5z m310 -109 c0 -93 -2 -105
-17 -105 -10 1 -28 -2 -40 -6 -33 -10 -73 34 -73 80 0 50 31 79 76 70 33 -6
34 -5 34 30 0 19 5 35 10 35 6 0 10 -41 10 -104z m620 89 c0 -8 -4 -15 -10
-15 -5 0 -10 7 -10 15 0 8 5 15 10 15 6 0 10 -7 10 -15z m947 -11 c-9 -9 -28
6 -21 18 4 6 10 6 17 -1 6 -6 8 -13 4 -17z m-2347 6 c0 -5 -18 -10 -39 -10
-48 0 -81 -35 -81 -86 0 -47 29 -74 80 -74 42 0 54 -14 20 -25 -51 -16 -111
22 -124 79 -9 36 10 92 37 111 24 17 107 21 107 5z m2130 0 c0 -5 -13 -10 -29
-10 -16 0 -35 -7 -42 -16 -14 -17 -13 -18 56 -67 55 -39 9 -120 -58 -103 -41
10 -32 24 16 28 34 2 43 7 45 25 2 16 -5 26 -26 37 -61 32 -78 69 -46 100 17
18 84 22 84 6z m-1965 -65 c16 -15 25 -36 25 -55 0 -36 -38 -80 -70 -80 -32 0
-70 44 -70 81 0 39 34 79 67 79 13 0 35 -11 48 -25z m167 8 c14 -12 18 -31 18
-75 0 -75 -21 -75 -24 -1 -2 58 -14 78 -44 69 -22 -7 -32 -33 -32 -88 0 -21
-4 -38 -10 -38 -6 0 -10 30 -10 69 0 64 2 70 23 74 45 9 61 7 79 -10z m261 4
c10 -6 19 -26 20 -42 2 -29 0 -30 -45 -33 -27 -2 -48 -6 -48 -10 1 -22 22 -35
54 -34 44 2 48 -14 6 -23 -38 -8 -79 16 -82 48 -5 85 43 133 95 94z m328 -8
c11 -11 19 -30 17 -42 -3 -19 -10 -22 -50 -25 -27 -2 -48 -7 -48 -12 0 -17 44
-39 67 -34 28 7 31 -12 4 -21 -28 -9 -70 4 -81 25 -17 32 -12 88 10 110 26 26
55 25 81 -1z m129 12 c0 -5 -10 -15 -21 -23 -16 -10 -23 -27 -27 -66 -2 -29
-8 -52 -13 -52 -9 0 -13 133 -5 141 9 8 66 8 66 0z m121 -1 c16 -9 19 -22 19
-76 0 -46 -4 -64 -12 -62 -7 1 -23 -1 -35 -6 -36 -12 -65 10 -61 47 3 28 8 33
43 41 50 12 47 10 39 31 -5 13 -15 16 -40 12 -19 -3 -34 -2 -34 3 0 19 51 25
81 10z m164 0 c3 -5 -12 -33 -34 -62 l-40 -53 39 -3 c60 -5 48 -22 -15 -22
-33 0 -55 4 -55 11 0 6 16 30 35 53 44 54 44 66 -1 66 -21 0 -33 4 -29 10 8
13 92 13 100 0z m222 -12 c45 -43 13 -138 -47 -138 -32 0 -70 44 -70 80 0 37
39 80 71 80 13 0 33 -10 46 -22z m97 11 c10 16 47 13 68 -6 13 -12 18 -31 18
-75 0 -32 -4 -58 -10 -58 -5 0 -10 21 -10 46 0 51 -14 84 -35 84 -23 0 -45
-42 -45 -87 0 -24 -4 -43 -10 -43 -6 0 -10 29 -10 68 0 68 7 93 21 71 5 -8 8
-8 13 0z m228 -6 c10 -9 18 -29 18 -44 0 -27 -2 -28 -52 -31 l-53 -3 23 -23
c16 -16 29 -21 47 -16 15 4 25 2 25 -5 0 -6 -12 -14 -26 -17 -65 -17 -112 80
-63 132 26 28 55 31 81 7z m324 -38 c10 -30 21 -55 24 -55 3 0 14 25 24 55 9
30 21 55 27 55 13 0 12 -4 -13 -82 -27 -85 -45 -86 -75 -3 -24 67 -27 85 -14
85 6 0 18 -25 27 -55z m144 -26 c0 -52 -3 -70 -12 -67 -14 5 -24 109 -14 135
13 32 26 -3 26 -68z m145 71 c3 -5 -12 -33 -34 -62 l-40 -53 32 -3 c58 -6 54
-22 -6 -22 -33 0 -57 4 -57 11 0 5 16 31 35 56 19 25 35 50 35 54 0 5 -16 9
-36 9 -21 0 -33 4 -29 10 8 13 92 13 100 0z m139 1 c3 -4 -13 -32 -35 -62
l-40 -54 33 -3 c62 -6 55 -22 -10 -22 -34 0 -62 2 -62 5 0 3 18 30 40 59 22
29 40 56 40 59 0 4 -16 7 -35 7 -19 0 -35 5 -35 10 0 12 97 13 104 1z m122 1
c18 -12 36 -52 30 -68 -4 -9 -21 -14 -51 -14 -47 0 -55 -9 -30 -34 11 -10 26
-14 48 -10 30 5 31 5 13 -10 -46 -37 -101 -2 -101 64 0 32 6 47 24 61 24 20
48 24 67 11z m115 1 c10 6 22 7 26 3 4 -5 2 -11 -5 -13 -29 -11 -42 -36 -42
-84 0 -27 -4 -49 -10 -49 -6 0 -10 32 -10 77 0 57 3 74 11 66 9 -9 16 -9 30 0z
m153 -9 c20 -20 23 -136 4 -132 -7 1 -23 -2 -36 -6 -27 -9 -72 16 -72 39 0 24
38 55 66 55 19 0 25 4 22 18 -3 12 -13 17 -36 16 -32 -2 -43 10 -19 19 25 11
56 7 71 -9z m-1624 -64 c0 -40 -4 -70 -10 -70 -6 0 -10 30 -10 70 0 40 4 70
10 70 6 0 10 -30 10 -70z m-930 -230 c0 -5 -6 -10 -14 -10 -7 0 -16 -9 -19
-21 -4 -14 1 -23 16 -29 l22 -9 -23 -7 c-21 -6 -23 -12 -22 -58 2 -71 1 -78
-10 -71 -5 3 -10 31 -10 62 0 41 -5 59 -17 69 -17 13 -17 13 0 14 11 0 17 8
17 23 0 13 5 28 12 35 15 15 48 16 48 2z m308 -97 l-3 -106 -42 -4 c-55 -5
-83 20 -83 76 0 31 6 44 27 61 15 11 31 19 37 16 47 -19 46 -20 46 23 0 23 5
41 10 41 7 0 10 -38 8 -107z m-781 80 c3 -8 -6 -10 -31 -6 -28 4 -39 1 -60
-20 -57 -57 -15 -156 60 -144 25 4 34 2 31 -6 -2 -7 -20 -13 -39 -15 -29 -2
-44 3 -70 27 -29 26 -33 35 -32 77 1 40 6 52 33 76 26 23 40 28 69 26 19 -2
37 -8 39 -15z m1403 7 c0 -5 -4 -10 -10 -10 -5 0 -10 5 -10 10 0 6 5 10 10 10
6 0 10 -4 10 -10z m760 0 c0 -5 -4 -10 -10 -10 -5 0 -10 5 -10 10 0 6 5 10 10
10 6 0 10 -4 10 -10z m-1987 -72 c23 -27 22 -69 -4 -102 -55 -70 -151 15 -108
95 22 42 79 45 112 7z m157 12 c15 -15 20 -33 20 -74 0 -30 -4 -58 -10 -61 -6
-4 -10 8 -10 28 0 90 -28 129 -62 87 -12 -15 -18 -39 -18 -72 0 -30 -4 -47
-10 -43 -5 3 -10 38 -10 77 0 54 3 69 13 65 8 -3 20 -1 28 4 22 14 37 11 59
-11z m265 -5 c14 -13 25 -33 25 -45 0 -17 -6 -20 -50 -20 -53 0 -58 -5 -37
-35 11 -14 21 -17 46 -12 24 5 31 3 29 -6 -7 -19 -67 -21 -88 -2 -37 34 -29
118 14 135 31 13 35 12 61 -15z m333 -3 c6 -9 12 -26 12 -39 0 -21 -4 -23 -50
-23 -53 0 -61 -8 -33 -35 11 -12 25 -15 45 -11 21 4 28 2 26 -7 -7 -19 -56
-20 -84 -2 -19 12 -24 24 -24 58 0 47 6 59 35 75 24 13 55 6 73 -16z m122 13
c0 -8 -7 -15 -15 -15 -20 0 -35 -40 -35 -91 0 -24 -4 -38 -10 -34 -5 3 -10 38
-10 77 0 54 3 69 13 65 8 -3 20 -1 28 4 20 13 29 11 29 -6z m132 -9 c4 -6 8
-38 8 -71 l0 -60 -42 -2 c-47 -3 -68 10 -68 42 0 28 17 43 58 51 18 4 32 10
32 14 0 17 -30 30 -54 24 -32 -8 -34 3 -3 16 25 10 58 3 69 -14z m536 8 c19
-13 22 -24 22 -80 0 -36 -4 -64 -10 -64 -5 0 -10 24 -10 54 0 55 -19 91 -44
83 -19 -6 -36 -50 -36 -95 0 -26 -4 -41 -10 -37 -5 3 -10 38 -10 77 0 54 3 69
13 65 8 -3 20 -1 28 4 20 12 31 11 57 -7z m233 6 c5 0 9 -5 9 -11 0 -7 -9 -9
-24 -5 -15 4 -28 0 -35 -8 -13 -15 -9 -19 34 -41 25 -13 31 -57 11 -74 -17
-14 -68 -11 -73 4 -2 6 11 10 29 10 44 0 46 25 5 50 -40 25 -48 61 -15 74 13
6 29 8 36 5 8 -2 18 -4 23 -4z m469 -5 c0 -8 -7 -15 -15 -15 -20 0 -35 -40
-35 -91 0 -24 -4 -38 -10 -34 -5 3 -10 38 -10 77 0 54 3 69 13 65 8 -3 20 -1
28 4 20 13 29 11 29 -6z m132 -9 c4 -6 8 -38 8 -71 l0 -60 -42 -2 c-47 -3 -68
10 -68 42 0 28 17 43 58 51 18 4 32 10 32 14 0 17 -30 30 -54 24 -32 -8 -34 3
-3 16 25 10 58 3 69 -14z m-1212 7 c0 -3 -18 -30 -40 -59 -22 -29 -40 -56 -40
-59 0 -3 18 -5 40 -5 22 0 40 -4 40 -10 0 -5 -25 -10 -55 -10 -35 0 -55 4 -55
12 0 6 18 35 40 65 l41 53 -41 0 c-22 0 -40 5 -40 10 0 6 25 10 55 10 30 0 55
-3 55 -7z m60 -62 c0 -39 -4 -73 -10 -76 -6 -4 -10 22 -10 69 0 44 4 76 10 76
6 0 10 -30 10 -69z m82 7 c3 -53 6 -63 22 -66 28 -6 46 25 46 80 0 26 5 48 10
48 6 0 10 -32 10 -75 0 -43 -4 -75 -10 -75 -5 0 -10 5 -10 12 0 9 -3 9 -12 0
-19 -19 -55 -14 -72 10 -21 30 -22 128 -1 128 10 0 15 -16 17 -62z m546 5 l19
-58 18 58 c10 31 24 57 31 57 10 0 8 -14 -6 -54 -25 -72 -40 -100 -50 -90 -5
5 -20 39 -33 77 -18 49 -21 67 -12 67 8 0 22 -26 33 -57z m132 -19 c0 -47 -4
-73 -10 -69 -5 3 -10 37 -10 76 0 39 4 69 10 69 6 0 10 -32 10 -76z m150 65
c0 -5 -16 -31 -35 -56 -19 -25 -35 -50 -35 -54 0 -5 16 -9 35 -9 19 0 35 -4
35 -10 0 -13 -97 -13 -105 0 -3 5 12 33 34 62 l40 53 -32 3 c-58 6 -54 22 6
22 33 0 57 -4 57 -11z m-2052 -766 c3 -28 6 -31 39 -30 42 1 63 -22 63 -68 0
-54 -23 -74 -85 -74 l-55 1 0 97 c0 54 3 101 7 105 14 13 28 -1 31 -31z m622
-67 l0 -104 -49 0 c-60 -1 -80 13 -87 60 -5 31 -2 41 20 63 20 20 33 25 52 21
21 -6 24 -3 24 22 0 32 7 42 27 42 10 0 13 -24 13 -104z m385 -1 l0 -100 -50
-2 c-62 -3 -85 15 -85 69 0 51 30 82 71 73 28 -6 29 -5 29 30 0 29 3 36 18 33
15 -3 17 -16 17 -103z m-695 74 c0 -14 -5 -19 -17 -17 -26 5 -29 38 -4 38 15
0 21 -6 21 -21z m1300 0 c0 -25 -33 -22 -38 4 -2 12 3 17 17 17 15 0 21 -6 21
-21z m-1920 -4 c0 -10 -11 -15 -35 -15 -28 0 -35 -4 -35 -19 0 -15 8 -21 33
-23 20 -2 32 -8 32 -18 0 -10 -12 -16 -32 -18 -25 -2 -33 -8 -33 -23 0 -15 7
-19 34 -19 20 0 36 -6 39 -14 8 -22 -2 -26 -60 -26 l-53 0 0 95 0 95 55 0 c42
0 55 -3 55 -15z m1680 1 c0 -9 -12 -16 -32 -18 -43 -4 -42 -21 2 -50 66 -44
42 -113 -36 -106 -28 2 -40 8 -42 21 -3 16 1 18 25 13 21 -5 34 -2 42 8 10 12
6 19 -28 41 -32 20 -41 31 -41 53 0 39 17 52 67 52 31 0 43 -4 43 -14z m-1550
-36 c13 -7 27 -6 44 2 22 9 29 8 46 -7 16 -14 20 -31 20 -77 0 -51 -2 -58 -19
-58 -17 0 -20 8 -23 52 -2 40 -7 54 -20 56 -14 3 -17 -6 -20 -50 -3 -45 -6
-53 -23 -53 -17 0 -19 6 -17 32 4 41 -6 73 -23 73 -17 0 -25 -23 -25 -72 0
-32 -3 -39 -17 -36 -15 3 -19 16 -21 72 -3 68 -3 68 22 64 14 -3 31 -1 38 3
16 11 16 11 38 -1z m398 -6 c18 -13 22 -25 22 -73 l0 -58 -42 -1 c-24 0 -50 2
-60 4 -46 13 -19 84 32 84 17 0 30 4 30 9 0 14 -23 19 -47 10 -19 -7 -23 -5
-23 11 0 30 53 39 88 14z m220 0 c18 -13 22 -25 22 -73 l0 -58 -47 -1 c-55 0
-73 11 -73 44 0 25 26 44 59 44 12 0 21 5 21 10 0 11 -12 13 -47 10 -27 -2
-32 26 -5 33 33 9 48 7 70 -9z m310 0 c18 -13 22 -25 22 -73 l0 -58 -47 -1
c-55 0 -73 11 -73 44 0 25 26 44 59 44 12 0 21 5 21 10 0 11 -12 13 -47 10
-27 -2 -32 26 -5 33 33 9 48 7 70 -9z m400 -11 c6 -9 12 -27 12 -40 0 -21 -5
-23 -46 -23 -32 0 -44 -4 -41 -12 2 -8 20 -13 41 -12 29 1 36 -2 34 -15 -2
-11 -16 -17 -40 -19 -48 -4 -78 24 -78 72 0 64 80 97 118 49z m733 9 c4 -4 9
-34 11 -67 l3 -60 -49 -2 c-56 -2 -76 9 -76 43 0 26 26 44 66 44 22 0 24 2 14
15 -8 9 -22 12 -41 8 -33 -6 -40 10 -11 27 17 10 71 6 83 -8z m-1571 -82 c0
-87 -1 -91 -25 -102 -31 -14 -43 -4 -27 22 7 11 12 53 12 95 0 68 2 75 20 75
19 0 20 -7 20 -90z m1140 41 c0 -28 5 -53 12 -57 17 -11 38 26 38 68 0 32 3
38 20 38 19 0 21 -5 18 -67 l-3 -68 -49 -2 c-66 -3 -76 7 -76 78 0 52 2 59 20
59 17 0 20 -7 20 -49z m160 -21 c0 -63 -2 -70 -20 -70 -18 0 -20 7 -20 70 0
63 2 70 20 70 18 0 20 -7 20 -70z m140 52 c0 -10 -11 -29 -25 -42 -14 -13 -25
-29 -25 -37 0 -7 11 -13 25 -13 16 0 25 -6 25 -15 0 -13 -11 -15 -57 -13 -32
2 -58 8 -60 15 -2 6 12 30 33 52 l36 41 -31 0 c-21 0 -31 5 -31 15 0 12 13 15
55 15 47 0 55 -3 55 -18z m-900 -742 c0 -11 -6 -20 -14 -20 -18 0 -29 16 -21
30 11 18 35 11 35 -10z m140 5 c0 -12 -28 -35 -44 -35 -11 0 -6 19 10 34 19
20 34 20 34 1z m698 -2 c5 -17 -26 -29 -40 -15 -6 6 -7 15 -3 22 9 14 37 9 43
-7z m1202 -83 c0 -93 -1 -100 -20 -100 -19 0 -20 7 -20 100 0 93 1 100 20 100
19 0 20 -7 20 -100z m86 89 c9 -15 -11 -33 -30 -26 -9 4 -13 13 -10 22 7 17
30 20 40 4z m234 -9 c0 -13 -7 -20 -20 -20 -19 0 -27 20 -13 33 13 14 33 6 33
-13z m-3490 -9 c0 -15 -7 -19 -36 -18 -41 1 -64 -21 -64 -62 0 -36 27 -61 67
-61 37 0 47 -24 13 -35 -33 -10 -78 4 -100 32 -51 65 -4 163 79 163 34 0 41
-3 41 -19z m1705 -1 c0 -8 -9 -15 -20 -16 -40 -2 -45 -4 -45 -19 0 -8 16 -21
35 -29 38 -16 53 -52 36 -84 -19 -36 -111 -41 -111 -6 0 9 11 14 33 14 19 0
36 3 40 6 10 10 -4 34 -20 34 -7 0 -25 11 -39 25 -28 28 -26 59 5 83 22 18 86
12 86 -8z m1197 8 c23 -19 28 -44 14 -64 -11 -15 -11 -20 0 -32 8 -7 14 -22
14 -32 0 -33 -28 -50 -81 -50 l-49 0 0 95 0 95 43 0 c24 0 50 -6 59 -12z
m-2752 -58 c30 -30 27 -83 -6 -109 -30 -24 -43 -26 -78 -10 -50 23 -55 101 -9
128 29 17 71 13 93 -9z m170 0 c30 -30 27 -83 -6 -109 -30 -24 -43 -26 -78
-10 -50 23 -55 101 -9 128 29 17 71 13 93 -9z m173 3 c24 -23 23 -87 -4 -114
-15 -15 -28 -19 -50 -14 -27 6 -29 5 -29 -24 0 -24 -4 -31 -20 -31 -19 0 -20
7 -20 93 0 52 2 96 5 99 13 12 101 5 118 -9z m150 4 c10 -6 19 -26 20 -42 2
-29 0 -30 -40 -33 -42 -3 -56 -15 -30 -25 7 -3 25 -3 40 0 36 7 37 -22 2 -31
-59 -15 -95 14 -95 75 0 58 58 90 103 56z m145 -4 c2 -7 -5 -16 -15 -20 -26
-9 -33 -23 -33 -65 0 -31 -4 -38 -20 -38 -18 0 -20 7 -20 69 l0 69 42 -1 c23
-1 43 -8 46 -14z m126 1 c11 -10 16 -34 16 -70 0 -51 -2 -55 -22 -53 -13 1
-31 -1 -41 -6 -19 -8 -67 18 -67 36 0 26 23 49 55 55 19 3 32 11 29 16 -4 6
-19 7 -35 4 -28 -5 -40 10 -22 27 12 13 72 7 87 -9z m146 1 c0 -8 -8 -15 -19
-15 -42 0 -57 -71 -16 -78 42 -7 48 -11 35 -27 -17 -21 -43 -19 -74 6 -33 26
-36 79 -6 109 24 24 80 27 80 5z m70 -55 c0 -63 -2 -70 -20 -70 -18 0 -20 7
-20 63 0 66 4 77 27 77 10 0 13 -18 13 -70z m158 54 c33 -23 31 -86 -4 -113
-15 -12 -34 -21 -44 -21 -34 0 -70 39 -70 76 0 63 65 95 118 58z m177 -7 c8
-12 15 -43 15 -70 0 -44 -2 -48 -22 -45 -20 3 -23 10 -26 56 -3 44 -6 53 -20
50 -13 -2 -18 -16 -20 -56 -3 -47 -5 -53 -24 -50 -18 3 -20 10 -20 66 1 34 1
63 1 65 1 2 23 4 51 5 40 1 52 -3 65 -21z m325 -19 c0 -51 12 -73 33 -65 11 4
17 22 19 54 2 36 7 49 21 51 15 3 17 -5 17 -67 0 -67 -1 -71 -22 -70 -13 0
-33 -2 -45 -6 -35 -11 -63 25 -63 83 0 51 5 62 27 62 9 0 13 -14 13 -42z m175
-28 c0 -58 -2 -65 -20 -65 -17 0 -20 8 -23 54 -4 65 2 84 25 79 15 -3 18 -14
18 -68z m145 50 c0 -10 -14 -35 -30 -54 l-31 -35 33 -3 c52 -5 34 -23 -27 -26
-48 -3 -55 -1 -55 16 0 10 11 29 25 42 14 13 25 29 25 37 0 7 -11 13 -25 13
-16 0 -25 6 -25 15 0 12 13 15 55 15 48 0 55 -2 55 -20z m137 8 c6 -7 13 -39
16 -71 5 -55 5 -58 -16 -56 -12 2 -32 -1 -44 -5 -31 -10 -63 10 -63 38 0 29
17 44 58 52 42 9 29 28 -14 21 -25 -4 -34 -2 -34 8 0 7 6 16 13 18 24 10 75 7
84 -5z m236 -1 c10 -6 19 -26 20 -42 2 -29 0 -30 -40 -33 -42 -3 -56 -15 -30
-25 7 -3 25 -3 40 0 38 7 37 -23 -1 -32 -60 -13 -102 28 -93 90 7 48 65 71
104 42z m177 -7 c5 -10 10 -41 10 -69 0 -44 -3 -51 -20 -51 -17 0 -20 7 -20
49 0 28 -5 53 -10 56 -21 13 -40 -17 -40 -61 0 -37 -3 -44 -20 -44 -18 0 -20
7 -20 69 l0 69 55 1 c44 0 57 -3 65 -19z m420 0 c30 -30 27 -83 -6 -109 -30
-24 -43 -26 -78 -10 -50 23 -55 101 -9 128 29 17 71 13 93 -9z m178 -53 c3
-61 1 -67 -17 -67 -17 0 -20 8 -23 66 -3 71 -2 76 22 72 11 -3 16 -19 18 -71z
m83 24 l16 -45 15 45 c8 25 22 45 31 47 22 5 21 -15 -4 -83 -17 -45 -25 -55
-44 -55 -19 0 -27 11 -48 63 -13 34 -22 66 -20 70 11 20 39 -2 54 -42z m149
-21 c0 -63 -2 -70 -20 -70 -18 0 -20 7 -20 63 0 66 4 77 27 77 10 0 13 -18 13
-70z m141 60 c15 -9 19 -22 19 -71 0 -52 -2 -60 -17 -58 -10 2 -28 -1 -40 -5
-31 -10 -63 10 -63 39 0 26 33 55 62 55 10 0 18 5 18 11 0 8 -12 10 -35 6 -33
-5 -47 7 -28 26 10 11 62 8 84 -3z"/>
<path d="M1045 3375 c-44 -8 -98 -20 -120 -27 l-40 -13 1 -135 c1 -154 21
-274 62 -359 35 -75 168 -209 245 -246 l57 -27 55 27 c63 31 158 114 208 183
68 93 107 258 107 449 0 88 -3 104 -18 112 -76 41 -408 62 -557 36z m283 -187
l3 -88 84 0 85 0 0 -75 0 -75 -85 0 -85 0 0 -85 0 -85 -75 0 -75 0 0 85 0 84
-87 3 -88 3 -3 73 -3 72 91 0 90 0 0 90 0 91 73 -3 72 -3 3 -87z"/>
<path d="M4247 3253 c-13 -12 -7 -81 8 -93 36 -30 79 26 56 76 -10 23 -48 33
-64 17z"/>
<path d="M2647 3253 c-18 -18 -5 -33 29 -33 29 0 35 3 30 16 -3 9 -6 18 -6 20
0 7 -46 5 -53 -3z"/>
<path d="M3012 3248 c-20 -20 -14 -28 24 -28 28 0 35 3 32 18 -4 21 -39 27
-56 10z"/>
<path d="M3770 3240 c-10 -19 -8 -20 31 -20 33 0 40 3 35 16 -3 9 -6 18 -6 20
0 14 -51 1 -60 -16z"/>
<path d="M4417 3253 c-4 -3 -7 -23 -7 -44 0 -29 5 -41 22 -50 18 -10 24 -8 40
11 21 25 22 43 8 71 -10 18 -50 26 -63 12z"/>
<path d="M4580 3240 c-10 -19 -8 -20 31 -20 33 0 40 3 35 16 -3 9 -6 18 -6 20
0 14 -51 1 -60 -16z"/>
<path d="M4907 3253 c-13 -12 -7 -81 8 -93 36 -30 84 24 65 74 -7 20 -17 26
-38 26 -16 0 -32 -3 -35 -7z"/>
<path d="M5316 3245 c-9 -25 -9 -25 30 -25 28 0 35 3 32 18 -4 23 -53 29 -62
7z"/>
<path d="M6090 3201 c-32 -9 -34 -45 -3 -49 14 -2 26 4 33 18 15 27 3 39 -30
31z"/>
<path d="M2749 2873 c-14 -38 1 -77 33 -81 20 -2 28 3 35 25 15 41 -2 83 -33
83 -17 0 -27 -8 -35 -27z"/>
<path d="M2160 2885 c-27 -32 -8 -95 29 -95 26 0 41 21 41 55 0 50 -42 74 -70
40z"/>
<path d="M2602 2888 c-20 -20 -14 -28 24 -28 28 0 35 3 32 18 -4 21 -39 27
-56 10z"/>
<path d="M2920 2880 c-10 -18 -8 -20 30 -20 38 0 40 2 30 20 -6 11 -19 20 -30
20 -11 0 -24 -9 -30 -20z"/>
<path d="M3180 2825 c-14 -17 -5 -35 19 -35 20 0 41 19 41 37 0 18 -45 17 -60
-2z"/>
<path d="M3514 2875 c-22 -34 -7 -79 28 -83 29 -4 51 18 51 53 0 54 -50 74
-79 30z"/>
<path d="M4550 2880 c-10 -18 -8 -20 30 -20 38 0 40 2 30 20 -6 11 -19 20 -30
20 -11 0 -24 -9 -30 -20z"/>
<path d="M2760 2524 c-19 -22 -16 -75 5 -90 29 -21 55 -1 55 44 0 56 -32 80
-60 46z"/>
<path d="M2163 2528 c-18 -23 -23 -48 -13 -72 11 -29 35 -39 61 -26 22 12 27
78 7 98 -16 16 -43 15 -55 0z"/>
<path d="M2602 2528 c-23 -23 -13 -38 23 -38 22 0 35 5 35 13 0 16 -20 37 -35
37 -6 0 -16 -5 -23 -12z"/>
<path d="M2926 2525 c-21 -22 -12 -35 25 -35 26 0 30 3 27 22 -4 28 -30 34
-52 13z"/>
<path d="M3182 2468 c-21 -21 -8 -48 23 -48 10 0 35 33 35 46 0 17 -41 19 -58
2z"/>
<path d="M3552 2528 c-27 -27 -5 -108 29 -108 16 0 49 39 49 58 0 45 -50 78
-78 50z"/>
<path d="M3892 2528 c-21 -21 -14 -38 16 -38 36 0 44 8 31 31 -11 22 -30 24
-47 7z"/>
<path d="M4772 2528 c-23 -23 -13 -38 23 -38 22 0 35 5 35 13 0 16 -20 37 -35
37 -6 0 -16 -5 -23 -12z"/>
<path d="M5033 2473 c-7 -2 -13 -13 -13 -23 0 -10 6 -20 13 -23 20 -7 47 12
47 33 0 20 -19 25 -47 13z"/>
<path d="M2763 2168 c-29 -38 -24 -93 8 -103 30 -10 49 13 49 56 0 28 -5 41
-19 49 -25 13 -27 13 -38 -2z"/>
<path d="M2165 2166 c-35 -25 -17 -106 24 -106 27 0 41 21 41 62 0 27 -5 40
-19 48 -25 13 -23 13 -46 -4z"/>
<path d="M2606 2164 c-25 -24 -19 -34 19 -34 36 0 46 15 23 38 -16 16 -23 15
-42 -4z"/>
<path d="M2927 2162 c-24 -27 -21 -32 18 -32 28 0 35 4 35 19 0 10 -7 22 -16
25 -21 8 -19 9 -37 -12z"/>
<path d="M3192 2109 c-29 -11 -26 -43 4 -47 25 -4 49 22 40 43 -6 17 -12 18
-44 4z"/>
<path d="M4562 2109 c-29 -11 -26 -43 4 -47 25 -4 49 22 40 43 -6 17 -12 18
-44 4z"/>
<path d="M2334 1324 c-4 -17 -1 -31 10 -42 15 -15 17 -15 32 0 22 22 11 68
-16 68 -13 0 -22 -9 -26 -26z"/>
<path d="M2860 1316 c0 -40 14 -53 36 -35 23 19 14 63 -13 67 -20 3 -23 -1
-23 -32z"/>
<path d="M3244 1336 c-10 -27 5 -68 24 -64 24 5 24 71 -1 76 -9 2 -20 -4 -23
-12z"/>
<path d="M2485 1290 c-8 -12 20 -24 35 -15 5 3 10 10 10 16 0 12 -37 12 -45
-1z"/>
<path d="M2710 1284 c0 -9 7 -14 17 -12 25 5 28 28 4 28 -12 0 -21 -6 -21 -16z"/>
<path d="M3015 1290 c-8 -12 20 -24 35 -15 5 3 10 10 10 16 0 12 -37 12 -45
-1z"/>
<path d="M3410 1344 c-10 -12 -8 -14 14 -14 28 0 35 14 12 23 -8 3 -20 -1 -26
-9z"/>
<path d="M4140 1285 c0 -8 6 -15 14 -15 7 0 19 7 26 15 11 13 8 15 -14 15 -16
0 -26 -5 -26 -15z"/>
<path d="M4890 569 c0 -14 5 -19 17 -17 26 5 29 38 4 38 -15 0 -21 -6 -21 -21z"/>
<path d="M4890 495 c0 -22 4 -26 23 -23 14 2 22 10 22 23 0 13 -8 21 -22 23
-19 3 -23 -1 -23 -23z"/>
<path d="M2124 536 c-3 -8 -4 -25 -2 -38 4 -33 52 -33 56 0 6 40 -41 73 -54
38z"/>
<path d="M2294 536 c-3 -8 -4 -25 -2 -38 4 -33 52 -33 56 0 6 40 -41 73 -54
38z"/>
<path d="M2471 532 c-14 -27 -2 -62 20 -62 24 0 33 21 25 55 -7 29 -31 33 -45
7z"/>
<path d="M2637 544 c-14 -14 -7 -25 13 -22 12 2 21 8 21 13 0 12 -24 18 -34 9z"/>
<path d="M2894 489 c-9 -16 18 -30 33 -17 7 6 13 14 13 19 0 13 -38 11 -46 -2z"/>
<path d="M3270 536 c-6 -8 -10 -25 -8 -38 2 -17 10 -23 28 -23 20 0 26 6 28
29 5 40 -25 59 -48 32z"/>
<path d="M4235 490 c-9 -15 3 -30 20 -24 23 9 27 34 5 34 -10 0 -22 -4 -25
-10z"/>
<path d="M4477 544 c-14 -14 -7 -25 13 -22 12 2 21 8 21 13 0 12 -24 18 -34 9z"/>
<path d="M5054 536 c-3 -8 -4 -25 -2 -38 4 -33 52 -33 56 0 6 40 -41 73 -54
38z"/>
<path d="M5625 490 c-3 -5 -4 -14 0 -20 8 -13 35 -1 35 16 0 16 -26 19 -35 4z"/>
</g>
</svg>
