<svg width="48" height="49" viewBox="0 0 48 49" fill="none" xmlns="http://www.w3.org/2000/svg">
<g id="facebook 1">
<path id="Vector" d="M41.3122 11.2452C40.6082 10.2852 39.7762 9.35724 38.9122 8.52524C34.8802 4.68524 29.5682 2.57324 24.0002 2.57324C12.0642 2.57324 2.36816 12.2692 2.36816 24.2052C2.36816 36.1412 12.0642 45.8372 24.0002 45.8372C28.0002 45.8372 31.8722 44.7492 35.2642 42.6692C35.6482 42.4452 35.7762 41.9332 35.5202 41.5812C35.4242 41.3892 35.2322 41.2612 35.0402 41.2292C34.8162 41.1652 34.6242 41.1972 34.4322 41.3252C31.2962 43.2452 27.6802 44.2692 24.0002 44.2692C12.9602 44.2692 3.96816 35.2772 3.96816 24.2372C3.96816 13.1972 12.9602 4.20524 24.0002 4.20524C29.1522 4.20524 34.0802 6.15724 37.8242 9.74124C38.6242 10.5092 39.3602 11.3412 40.0642 12.2372C42.6882 15.7252 44.0642 19.8852 44.0642 24.2372C44.0642 24.6852 44.4162 25.0372 44.8642 25.0372C45.3122 25.0372 45.6642 24.6852 45.6642 24.2372C45.6322 19.4692 44.1282 14.9892 41.3122 11.2452Z" fill="white"/>
<path id="Vector_2" d="M26.8801 15.3735H29.3441V11.2135C28.9281 11.1495 27.4561 11.0215 25.7601 11.0215C22.2081 11.0215 19.7761 13.1975 19.7761 17.1975V20.6215H15.7441V25.2935H19.7761V37.2615H24.5761V25.2935H28.5761L29.1841 20.6215H24.5761V17.6455C24.5761 16.3015 24.9281 15.3735 26.8801 15.3735Z" fill="white"/>
</g>
</svg>
