<svg width="48" height="49" viewBox="0 0 48 49" fill="none" xmlns="http://www.w3.org/2000/svg">
<g id="instagram 1">
<path id="Vector" d="M41.3122 11.2452C40.6082 10.2852 39.7762 9.35724 38.9122 8.52524C34.8802 4.68524 29.5682 2.57324 24.0002 2.57324C12.0642 2.57324 2.36816 12.2692 2.36816 24.2052C2.36816 36.1412 12.0642 45.8372 24.0002 45.8372C28.0002 45.8372 31.8722 44.7492 35.2642 42.6692C35.6482 42.4452 35.7762 41.9332 35.5202 41.5812C35.4242 41.3892 35.2322 41.2612 35.0402 41.2292C34.8162 41.1652 34.6242 41.1972 34.4322 41.3252C31.2962 43.2452 27.6802 44.2692 24.0002 44.2692C12.9602 44.2692 3.96816 35.2772 3.96816 24.2372C3.96816 13.1972 12.9602 4.20524 24.0002 4.20524C29.1522 4.20524 34.0802 6.15724 37.8242 9.74124C38.6242 10.5092 39.3602 11.3412 40.0642 12.2372C42.6882 15.7252 44.0642 19.8852 44.0642 24.2372C44.0642 24.6852 44.4162 25.0372 44.8642 25.0372C45.3122 25.0372 45.6642 24.6852 45.6642 24.2372C45.6322 19.4692 44.1282 14.9892 41.3122 11.2452Z" fill="white"/>
<path id="Vector_2" d="M18.8799 12.8447C15.7439 12.8447 13.1519 15.4047 13.1519 18.5727V29.8687C13.1519 33.0047 15.7119 35.5967 18.8799 35.5967H29.1199C32.2559 35.5967 34.8479 33.0367 34.8479 29.8687V18.5727C34.8479 15.4367 32.2879 12.8447 29.1199 12.8447H18.8799ZM29.1199 33.9647H18.8799C16.6079 33.9647 14.7519 32.1087 14.7519 29.8367V18.5727C14.7519 16.3007 16.6079 14.4447 18.8799 14.4447H29.1199C31.3919 14.4447 33.2479 16.3007 33.2479 18.5727V29.8687C33.2479 32.1087 31.3919 33.9647 29.1199 33.9647Z" fill="white"/>
<path id="Vector_3" d="M23.9998 18.8614C21.0558 18.8614 18.6558 21.2614 18.6558 24.2054C18.6558 27.1494 21.0558 29.5494 23.9998 29.5494C26.9438 29.5494 29.3438 27.1494 29.3438 24.2054C29.3438 21.2614 26.9438 18.8614 23.9998 18.8614ZM23.9998 27.9494C21.9518 27.9494 20.2558 26.2854 20.2558 24.2054C20.2558 22.1254 21.9518 20.4614 23.9998 20.4614C26.0478 20.4614 27.7438 22.1574 27.7438 24.2054C27.7438 26.2534 26.0478 27.9494 23.9998 27.9494ZM29.7278 16.5254C29.0238 16.5254 28.4798 17.1014 28.4798 17.7734C28.4798 18.4774 29.0558 19.0214 29.7278 19.0214C30.3998 19.0214 30.9758 18.4454 30.9758 17.7734C30.9758 17.1014 30.4318 16.5254 29.7278 16.5254Z" fill="white"/>
</g>
</svg>
