<?xml version="1.0" standalone="no"?>
<!DOCTYPE svg PUBLIC "-//W3C//DTD SVG 20010904//EN"
 "http://www.w3.org/TR/2001/REC-SVG-20010904/DTD/svg10.dtd">
<svg version="1.0" xmlns="http://www.w3.org/2000/svg"
 width="281.000000pt" height="149.000000pt" viewBox="0 0 281.000000 149.000000"
 preserveAspectRatio="xMidYMid meet">

<g transform="translate(0.000000,149.000000) scale(0.100000,-0.100000)"
fill="#000000" stroke="none">
<path d="M455 972 c-100 -35 -201 -119 -236 -195 -47 -105 -3 -238 88 -268 31
-10 41 -8 96 20 34 16 84 50 112 74 l49 44 16 -45 c20 -61 54 -85 122 -85 61
0 141 35 183 80 44 49 25 69 -35 38 -16 -9 -50 -18 -74 -21 -39 -6 -48 -3 -70
19 -14 14 -26 37 -26 50 0 19 8 26 43 36 62 19 149 68 170 97 12 15 17 37 15
60 l-3 36 -35 -31 c-40 -35 -169 -106 -177 -97 -10 10 70 98 116 127 25 16 58
29 73 29 18 0 28 5 28 14 0 39 -93 25 -172 -25 -64 -41 -125 -110 -153 -174
-26 -57 -53 -81 -137 -120 -88 -41 -149 -28 -163 36 -8 35 3 50 78 110 56 45
63 46 70 19 3 -11 11 -20 17 -20 25 0 98 85 111 129 12 41 12 45 -10 62 -28
23 -33 23 -96 1z"/>
<path d="M1953 983 c-16 -6 -19 -318 -3 -328 6 -4 22 19 36 50 24 53 26 64 20
144 -4 47 -8 97 -8 111 -1 25 -17 33 -45 23z"/>
<path d="M2311 965 c-109 -34 -211 -136 -245 -247 -3 -10 -32 -38 -66 -64 -42
-33 -60 -54 -60 -70 0 -38 14 -35 67 11 28 25 54 45 57 45 3 0 6 -12 6 -26 0
-16 13 -39 34 -60 30 -30 40 -34 88 -34 38 0 70 8 113 29 72 34 175 118 175
143 0 24 -8 23 -53 -8 -59 -39 -139 -74 -173 -74 -40 0 -72 26 -80 66 -5 29
-4 31 38 43 185 56 331 214 231 252 -33 12 -79 10 -132 -6z m76 -61 c9 -23
-50 -78 -128 -119 -37 -19 -70 -35 -73 -35 -31 0 80 121 137 149 50 25 56 26
64 5z"/>
<path d="M2571 688 c-46 -55 -79 -103 -74 -107 5 -3 30 -23 55 -43 25 -21 48
-38 51 -38 3 0 42 44 87 98 l81 97 -43 38 c-72 63 -64 66 -157 -45z"/>
<path d="M2477 493 c-4 -3 -7 -15 -7 -25 0 -19 16 -23 38 -10 10 7 8 12 -6 25
-10 9 -22 14 -25 10z"/>
<path d="M480 456 c-91 -20 -168 -50 -237 -95 -55 -35 -101 -86 -89 -98 3 -3
30 8 59 25 156 88 283 117 477 109 160 -7 278 -24 478 -71 180 -42 349 -72
506 -87 211 -21 450 16 629 99 87 41 152 80 144 88 -2 3 -71 -18 -153 -45
-265 -88 -402 -105 -639 -77 -132 15 -227 33 -642 122 -199 42 -418 54 -533
30z"/>
<path d="M118 134 c-31 -16 -46 -59 -31 -83 6 -9 23 -17 39 -18 27 -3 27 -2 7
7 -30 12 -31 60 -2 86 17 15 23 16 40 6 10 -7 19 -8 19 -3 0 8 -24 21 -38 21
-4 -1 -19 -7 -34 -16z"/>
<path d="M694 134 c-4 -10 -13 -34 -20 -53 -13 -32 -11 -51 5 -51 8 0 33 111
26 118 -2 3 -8 -4 -11 -14z"/>
<path d="M1126 141 c-16 -26 -33 -101 -24 -107 12 -8 13 -8 26 55 12 52 11 73
-2 52z"/>
<path d="M1220 140 c0 -5 5 -10 11 -10 5 0 7 5 4 10 -3 6 -8 10 -11 10 -2 0
-4 -4 -4 -10z"/>
<path d="M1565 140 c-3 -5 1 -10 10 -10 9 0 13 5 10 10 -3 6 -8 10 -10 10 -2
0 -7 -4 -10 -10z"/>
<path d="M1695 140 c-3 -5 1 -10 10 -10 9 0 13 5 10 10 -3 6 -8 10 -10 10 -2
0 -7 -4 -10 -10z"/>
<path d="M2117 143 c-7 -12 -37 -96 -37 -105 0 -5 6 -8 14 -8 8 0 14 8 14 18
-1 9 4 34 11 55 12 35 10 60 -2 40z"/>
<path d="M2475 140 c-3 -5 1 -10 10 -10 9 0 13 5 10 10 -3 6 -8 10 -10 10 -2
0 -7 -4 -10 -10z"/>
<path d="M876 103 c11 -60 18 -68 37 -39 14 21 15 24 2 20 -11 -5 -15 1 -15
25 0 21 -5 31 -15 31 -13 0 -15 -7 -9 -37z"/>
<path d="M954 128 c-4 -7 -8 -21 -9 -32 -1 -12 -5 -31 -9 -43 -5 -16 -3 -23 6
-23 7 0 20 24 29 55 13 44 14 55 3 55 -7 0 -16 -5 -20 -12z"/>
<path d="M1942 84 l-20 -55 46 3 c30 2 47 8 50 18 4 12 2 13 -9 2 -20 -18 -49
-15 -49 6 0 10 3 22 7 26 4 4 9 18 10 31 6 44 -14 27 -35 -31z"/>
<path d="M1170 117 c-8 -7 -16 -19 -16 -27 -1 -8 -3 -24 -5 -34 -2 -11 3 -21
11 -24 8 -3 12 -1 8 3 -4 4 -2 19 4 34 10 26 19 61 15 61 -1 0 -9 -6 -17 -13z"/>
<path d="M393 112 c-14 -10 -27 -82 -13 -82 5 0 10 6 10 13 0 6 7 24 14 39 15
28 9 43 -11 30z"/>
<path d="M2423 112 c-14 -9 -29 -82 -16 -82 8 0 35 81 29 87 -1 1 -7 -1 -13
-5z"/>
<path d="M243 103 c4 -3 1 -13 -6 -21 -10 -13 -9 -14 3 -10 19 6 26 38 9 38
-7 0 -9 -3 -6 -7z"/>
<path d="M286 86 c-3 -13 -9 -31 -12 -40 -3 -9 -2 -16 3 -16 11 0 33 44 33 65
0 24 -17 17 -24 -9z"/>
<path d="M329 108 c-7 -25 -7 -78 -1 -78 8 0 22 45 22 71 0 8 -19 13 -21 7z"/>
<path d="M437 103 c-12 -20 -18 -73 -8 -73 5 0 13 16 17 35 6 34 1 55 -9 38z"/>
<path d="M465 100 c-3 -5 1 -10 10 -10 9 0 13 5 10 10 -3 6 -8 10 -10 10 -2 0
-7 -4 -10 -10z"/>
<path d="M544 101 c4 -5 2 -21 -4 -35 -12 -31 4 -35 20 -5 13 23 7 49 -10 49
-6 0 -9 -4 -6 -9z"/>
<path d="M634 85 c-17 -26 -13 -55 7 -55 6 0 8 7 5 16 -4 9 1 27 9 40 9 13 11
24 5 24 -5 0 -17 -11 -26 -25z"/>
<path d="M763 103 c4 -3 2 -12 -4 -20 -7 -8 -8 -13 -1 -13 5 0 15 6 21 13 11
14 5 27 -12 27 -6 0 -7 -3 -4 -7z"/>
<path d="M1006 79 c-8 -44 -8 -51 5 -47 14 5 24 78 11 78 -5 0 -12 -14 -16
-31z"/>
<path d="M1052 85 c-16 -35 -15 -55 3 -55 9 0 15 9 15 24 0 13 3 31 6 40 10
27 -12 18 -24 -9z"/>
<path d="M1203 75 c-7 -22 -8 -37 -1 -41 13 -8 14 -5 22 39 9 47 -7 49 -21 2z"/>
<path d="M1255 101 c-3 -6 0 -21 7 -33 7 -13 11 -27 10 -31 -1 -5 2 -6 8 -2
14 9 12 37 -4 58 -9 11 -17 14 -21 8z"/>
<path d="M1363 103 c4 -3 2 -12 -4 -20 -7 -8 -8 -13 -1 -13 5 0 15 6 21 13 11
14 5 27 -12 27 -6 0 -7 -3 -4 -7z"/>
<path d="M1400 72 c-5 -20 -7 -38 -4 -41 8 -8 24 22 24 46 0 16 5 20 20 16 11
-3 20 -1 20 5 0 5 -11 10 -25 10 -20 0 -27 -7 -35 -36z"/>
<path d="M1479 106 c-3 -3 -3 -22 -1 -41 l4 -36 24 22 c13 12 24 32 23 43 0
14 -2 16 -6 6 -2 -8 -7 -22 -10 -30 -3 -11 -8 -7 -16 13 -7 16 -15 26 -18 23z"/>
<path d="M1557 103 c-3 -5 -8 -23 -12 -41 -8 -37 10 -45 19 -8 3 13 9 31 12
40 6 16 -11 23 -19 9z"/>
<path d="M1646 95 c-3 -8 -1 -15 4 -15 6 0 10 7 10 15 0 8 -2 15 -4 15 -2 0
-6 -7 -10 -15z"/>
<path d="M1687 103 c-3 -5 -8 -23 -12 -41 -8 -37 10 -45 19 -8 3 13 9 31 12
40 6 16 -11 23 -19 9z"/>
<path d="M1774 101 c4 -5 2 -21 -4 -35 -12 -31 4 -35 20 -5 13 23 7 49 -10 49
-6 0 -9 -4 -6 -9z"/>
<path d="M1824 97 c-2 -7 2 -26 10 -42 13 -24 16 -26 22 -12 4 11 0 25 -10 36
-9 10 -13 21 -9 24 3 4 3 7 -1 7 -3 0 -9 -6 -12 -13z"/>
<path d="M1855 100 c3 -5 8 -10 11 -10 2 0 4 5 4 10 0 6 -5 10 -11 10 -5 0 -7
-4 -4 -10z"/>
<path d="M2055 86 c-18 -27 -14 -56 6 -56 6 0 8 7 5 16 -3 8 -1 25 5 36 16 30
3 33 -16 4z"/>
<path d="M2142 78 c-5 -18 -5 -37 -1 -42 12 -13 15 -7 23 37 9 46 -10 50 -22
5z"/>
<path d="M2190 86 c-12 -33 -13 -56 -1 -56 10 0 25 69 17 77 -3 3 -10 -6 -16
-21z"/>
<path d="M2286 95 c-3 -8 -1 -15 4 -15 6 0 10 7 10 15 0 8 -2 15 -4 15 -2 0
-6 -7 -10 -15z"/>
<path d="M2326 88 c-20 -29 -20 -58 0 -58 11 0 13 6 9 20 -3 10 -1 28 5 40 14
27 5 26 -14 -2z"/>
<path d="M2360 84 c-6 -14 -10 -32 -10 -40 0 -23 17 -16 24 10 3 13 9 31 12
40 3 9 1 16 -5 16 -6 0 -16 -12 -21 -26z"/>
<path d="M2456 79 c-8 -41 -8 -49 2 -49 4 0 13 18 19 40 8 31 7 40 -2 40 -7 0
-15 -14 -19 -31z"/>
<path d="M2510 91 c0 -27 11 -52 19 -46 10 6 1 65 -10 65 -5 0 -9 -9 -9 -19z"/>
<path d="M2550 101 c0 -6 5 -13 10 -16 6 -3 10 1 10 9 0 9 -4 16 -10 16 -5 0
-10 -4 -10 -9z"/>
<path d="M2597 92 c-19 -21 -22 -48 -7 -57 6 -3 10 3 10 15 0 12 5 30 10 41
13 24 8 24 -13 1z"/>
<path d="M2632 83 c-1 -14 -7 -32 -13 -40 -9 -10 -9 -12 3 -8 23 9 40 51 25
64 -10 7 -13 3 -15 -16z"/>
<path d="M2677 95 c-4 -8 -2 -17 4 -21 6 -3 14 -16 19 -28 7 -19 9 -19 15 -3
5 11 1 25 -9 36 -9 10 -13 21 -9 24 3 4 2 7 -4 7 -6 0 -13 -7 -16 -15z"/>
<path d="M2715 100 c3 -5 8 -10 11 -10 2 0 4 5 4 10 0 6 -5 10 -11 10 -5 0 -7
-4 -4 -10z"/>
<path d="M200 79 c-7 -11 -9 -27 -6 -35 6 -17 42 -19 52 -2 4 7 3 8 -4 4 -21
-13 -32 3 -22 29 12 31 -5 34 -20 4z"/>
<path d="M502 88 c-14 -14 -16 -44 -4 -52 4 -2 12 11 18 30 11 35 7 43 -14 22z"/>
<path d="M720 79 c-15 -28 -6 -49 22 -49 20 1 21 2 6 11 -14 7 -15 15 -8 34
12 31 -5 34 -20 4z"/>
<path d="M1320 79 c-15 -28 -6 -49 22 -49 20 1 21 2 6 11 -14 7 -15 15 -8 34
12 31 -5 34 -20 4z"/>
<path d="M1600 79 c-15 -28 -6 -49 22 -49 21 0 21 0 2 14 -16 13 -17 18 -6 35
7 12 8 21 2 21 -5 0 -14 -9 -20 -21z"/>
<path d="M1732 88 c-14 -14 -16 -44 -4 -52 4 -2 12 11 18 30 11 35 7 43 -14
22z"/>
<path d="M1990 90 c0 -5 5 -10 10 -10 6 0 10 5 10 10 0 6 -4 10 -10 10 -5 0
-10 -4 -10 -10z"/>
<path d="M2240 79 c-15 -28 -6 -49 22 -49 21 0 21 0 2 14 -16 13 -17 18 -6 35
7 12 8 21 2 21 -5 0 -14 -9 -20 -21z"/>
<path d="M1240 40 c0 -5 5 -10 11 -10 5 0 7 5 4 10 -3 6 -8 10 -11 10 -2 0 -4
-4 -4 -10z"/>
<path d="M2660 40 c0 -5 5 -10 11 -10 5 0 7 5 4 10 -3 6 -8 10 -11 10 -2 0 -4
-4 -4 -10z"/>
</g>
</svg>
