<?xml version="1.0" standalone="no"?>
<!DOCTYPE svg PUBLIC "-//W3C//DTD SVG 20010904//EN"
 "http://www.w3.org/TR/2001/REC-SVG-20010904/DTD/svg10.dtd">
<svg version="1.0" xmlns="http://www.w3.org/2000/svg"
 width="571.000000pt" height="571.000000pt" viewBox="0 0 571.000000 571.000000"
 preserveAspectRatio="xMidYMid meet">

<g transform="translate(0.000000,571.000000) scale(0.100000,-0.100000)"
fill="#000000" stroke="none">
<path d="M2616 5265 c-9 -24 -7 -258 2 -272 8 -13 97 -21 108 -10 4 3 15 -4
25 -16 18 -21 19 -21 34 -3 11 15 26 18 75 17 l61 -1 -3 147 -3 148 -146 3
c-128 3 -147 1 -153 -13z m159 -285 c3 -5 1 -10 -4 -10 -6 0 -11 5 -11 10 0 6
2 10 4 10 3 0 8 -4 11 -10z"/>
<path d="M2926 4972 c-3 -4 -4 -34 -4 -66 1 -40 -3 -60 -13 -66 -11 -8 -12
-13 -1 -30 6 -11 12 -48 12 -83 l0 -62 -37 1 c-23 2 -45 -4 -55 -13 -10 -9
-18 -11 -18 -5 0 6 6 13 13 16 6 4 3 5 -9 2 -13 -2 -26 4 -33 16 -12 19 -13
18 -34 -9 -24 -31 -50 -53 -56 -48 -2 2 4 11 13 20 9 9 16 17 16 18 0 1 -22 3
-50 3 l-50 0 0 -47 c0 -28 5 -49 13 -52 10 -4 10 -6 0 -6 -20 -1 -15 -38 6
-44 21 -5 108 79 103 100 -2 8 3 10 13 7 8 -3 15 -11 15 -18 0 -16 78 -92 86
-84 3 4 -13 24 -36 47 -35 34 -71 103 -52 100 4 -1 40 -36 80 -79 64 -68 70
-77 47 -75 -22 3 -25 0 -19 -18 6 -20 5 -21 -11 -7 -17 14 -17 13 -11 -10 5
-18 5 -21 -3 -11 -14 21 -44 -5 -36 -30 7 -21 -10 -26 -19 -6 -4 6 -4 2 -2
-11 4 -19 1 -22 -15 -17 -14 5 -17 3 -13 -9 14 -36 -27 -13 -77 44 -56 62 -69
71 -69 44 0 -8 5 -12 10 -9 6 3 10 1 10 -4 0 -6 -4 -11 -10 -11 -17 0 -12 -87
6 -94 31 -12 74 -7 74 10 0 8 5 12 10 9 6 -4 8 -10 6 -14 -3 -4 109 -7 248 -7
l253 1 -1 -150 c0 -82 -4 -153 -9 -156 -5 -4 -9 -58 -9 -120 0 -170 1 -191 12
-184 6 4 10 66 10 155 0 126 2 149 16 154 38 15 39 10 36 -154 l-3 -160 100 0
100 0 3 159 c2 88 -1 159 -6 158 -5 -1 -11 4 -13 11 -6 17 12 15 27 -3 10 -12
43 -15 181 -15 l169 0 0 150 0 150 -155 0 -155 0 0 155 0 155 -150 0 -150 0 0
149 c0 155 -2 164 -42 153 -16 -4 -18 -20 -18 -155 0 -83 -3 -147 -7 -143 -4
4 -6 72 -5 151 l3 145 -80 0 c-44 0 -86 3 -95 6 -14 5 -16 -12 -16 -152 0 -86
-3 -154 -7 -151 -3 4 -6 70 -5 146 1 106 -2 142 -13 151 -7 6 -16 7 -19 2z
m206 -103 c-9 -10 -18 -16 -21 -14 -2 3 1 11 7 17 17 17 15 22 -19 47 l-31 23
-31 -28 c-30 -27 -30 -27 3 9 l34 37 37 -36 c35 -34 36 -37 21 -55z m-102 -14
c-7 -9 -10 -18 -7 -22 4 -3 13 0 22 7 8 7 15 8 15 2 0 -22 -25 -31 -45 -16
-20 15 -20 15 -1 30 26 18 32 18 16 -1z m70 -8 c0 -2 -10 -12 -22 -23 l-23
-19 19 23 c18 21 26 27 26 19z m26 -75 c-15 -15 -17 -15 -33 1 -16 15 -16 18
2 37 l18 20 15 -21 c13 -18 13 -23 -2 -37z m-83 13 c-3 -9 -8 -14 -10 -11 -3
3 -2 9 2 15 9 16 15 13 8 -4z m1 -57 c28 -23 32 -22 63 7 15 13 29 22 31 20 5
-5 -57 -65 -67 -65 -13 0 -61 56 -60 71 0 12 1 12 6 -1 4 -8 16 -22 27 -32z
m-194 -92 c0 -3 -4 -8 -10 -11 -5 -3 -10 -1 -10 4 0 6 5 11 10 11 6 0 10 -2
10 -4z m420 -6 c0 -5 -2 -10 -4 -10 -3 0 -8 5 -11 10 -3 6 -1 10 4 10 6 0 11
-4 11 -10z m-223 -15 c0 -5 3 -21 7 -34 6 -16 5 -21 -3 -17 -6 4 -11 13 -11
21 0 8 -10 21 -22 30 l-23 15 26 -2 c14 -1 26 -7 26 -13z m73 -1 c0 -8 -4 -12
-10 -9 -5 3 -10 10 -10 16 0 5 5 9 10 9 6 0 10 -7 10 -16z m227 0 c-3 -3 -12
-4 -19 -1 -8 3 -5 6 6 6 11 1 17 -2 13 -5z m93 2 c0 -9 -30 -14 -35 -6 -4 6 3
10 14 10 12 0 21 -2 21 -4z m70 0 c0 -3 -4 -8 -10 -11 -5 -3 -10 -1 -10 4 0 6
5 11 10 11 6 0 10 -2 10 -4z m-240 -16 c0 -5 -2 -10 -4 -10 -3 0 -8 5 -11 10
-3 6 -1 10 4 10 6 0 11 -4 11 -10z m-167 -25 c-7 -21 -12 -19 -10 4 0 11 5 18
9 15 4 -3 5 -11 1 -19z m352 15 c3 -5 1 -10 -4 -10 -6 0 -11 5 -11 10 0 6 2
10 4 10 3 0 8 -4 11 -10z m-756 -17 c-25 -32 -40 -45 -45 -41 -4 5 45 58 54
58 2 0 -2 -8 -9 -17z m626 7 c3 -5 2 -10 -4 -10 -5 0 -13 5 -16 10 -3 6 -2 10
4 10 5 0 13 -4 16 -10z m-303 -9 c6 10 7 7 3 -10 -6 -18 -4 -22 6 -16 8 5 10
4 6 0 -16 -18 -32 -11 -33 14 -1 14 1 20 3 12 5 -11 7 -11 15 0z m132 -7 c3
-8 2 -12 -4 -9 -6 3 -10 1 -10 -4 0 -6 -7 -11 -15 -11 -12 0 -12 3 3 19 9 11
18 20 18 20 1 1 5 -6 8 -15z m279 -9 c-3 -9 -8 -14 -10 -11 -3 3 -2 9 2 15 9
16 15 13 8 -4z m-83 -5 c0 -5 -4 -10 -10 -10 -5 0 -10 5 -10 10 0 6 5 10 10
10 6 0 10 -4 10 -10z m137 -22 c-3 -7 -5 -2 -5 12 0 14 2 19 5 13 2 -7 2 -19
0 -25z m-217 12 c8 -5 11 -10 5 -10 -5 0 -17 5 -25 10 -8 5 -10 10 -5 10 6 0
17 -5 25 -10z m-187 -37 c-3 -7 -9 -13 -15 -13 -5 0 -6 5 -3 10 3 6 1 10 -5
10 -7 0 -6 5 2 14 15 16 29 1 21 -21z m-43 -13 c0 -9 -42 -32 -48 -26 -3 3 0
6 7 6 7 0 11 6 8 13 -3 8 3 13 14 13 11 0 19 -3 19 -6z m92 -8 c-7 -2 -9 -9
-6 -14 4 -7 2 -8 -4 -4 -6 4 -9 13 -6 21 4 8 11 12 17 8 8 -5 7 -8 -1 -11z
m222 -1 c3 -5 -1 -11 -9 -15 -9 -3 -15 0 -15 9 0 16 16 20 24 6z m84 -2 c-2
-6 -8 -10 -13 -10 -5 0 -11 4 -13 10 -2 6 4 11 13 11 9 0 15 -5 13 -11z m-598
-29 c0 -5 -5 -10 -11 -10 -5 0 -7 5 -4 10 3 6 8 10 11 10 2 0 4 -4 4 -10z
m480 0 c0 -5 -5 -10 -11 -10 -5 0 -7 5 -4 10 3 6 8 10 11 10 2 0 4 -4 4 -10z
m-270 -14 c0 -3 -4 -8 -10 -11 -5 -3 -10 -1 -10 4 0 6 5 11 10 11 6 0 10 -2
10 -4z m299 -27 c-16 -10 -23 -4 -14 10 3 6 11 8 17 5 6 -4 5 -9 -3 -15z m85
6 c-4 -8 -8 -15 -10 -15 -2 0 -4 7 -4 15 0 8 4 15 10 15 5 0 7 -7 4 -15z
m-409 -5 c3 -5 -1 -10 -10 -10 -9 0 -13 5 -10 10 3 6 8 10 10 10 2 0 7 -4 10
-10z m105 0 c12 -8 11 -10 -7 -10 -13 0 -23 5 -23 10 0 13 11 13 30 0z m-295
-20 c-10 -11 -20 -18 -23 -16 -5 6 21 35 32 36 5 0 1 -9 -9 -20z m675 10 c0
-5 -7 -10 -16 -10 -8 0 -12 5 -9 10 3 6 10 10 16 10 5 0 9 -4 9 -10z m-57 -41
l60 2 -31 -33 c-18 -17 -32 -36 -32 -42 0 -5 14 -25 32 -43 18 -19 26 -33 18
-33 -7 0 -10 -3 -7 -7 4 -4 -5 -19 -20 -35 -23 -24 -26 -32 -15 -48 8 -13 8
-21 1 -26 -6 -3 -8 -12 -6 -18 4 -9 -9 -13 -44 -15 -41 -1 -54 3 -75 24 -23
23 -52 26 -38 4 3 -5 9 -7 14 -4 10 6 35 -23 26 -32 -3 -3 -6 -1 -6 6 0 6 -6
11 -12 10 -7 -1 -21 1 -31 6 -17 7 -17 8 1 29 25 28 34 54 20 62 -7 4 -8 3 -4
-4 12 -19 1 -14 -20 10 -10 12 -13 18 -5 13 11 -6 13 -4 7 10 -4 10 -2 21 5
25 7 5 8 10 1 14 -6 3 -13 -3 -17 -14 -3 -11 -11 -20 -16 -20 -13 0 4 30 30
54 28 25 27 34 -11 73 -31 32 -31 33 -8 33 13 0 20 -3 17 -7 -11 -10 14 -34
27 -26 6 4 17 8 25 10 8 1 18 9 23 18 5 8 14 12 20 9 6 -4 38 -6 71 -5z m-139
-14 c-4 -8 -10 -12 -15 -9 -11 6 -2 24 11 24 5 0 7 -7 4 -15z m36 11 c0 -3 -4
-8 -10 -11 -5 -3 -10 -1 -10 4 0 6 5 11 10 11 6 0 10 -2 10 -4z m266 -76 c20
-8 29 -8 35 2 4 7 12 9 16 4 4 -5 3 -11 -4 -13 -6 -2 -31 -18 -55 -35 -41 -30
-42 -32 -20 -41 12 -6 22 -14 22 -19 0 -4 6 -8 13 -8 7 0 23 -7 36 -16 17 -13
20 -19 10 -25 -8 -4 -18 -1 -25 9 -10 14 -15 15 -25 5 -21 -21 -29 -15 -29 18
0 24 -4 30 -15 25 -11 -4 -15 2 -15 24 0 19 5 29 13 28 7 -2 12 8 12 25 -1 15
0 27 1 27 2 0 15 -5 30 -10z m111 -1 c8 -8 17 -8 31 0 29 15 31 14 27 -14 -1
-16 3 -25 11 -25 9 0 14 -11 14 -30 0 -19 -5 -29 -12 -27 -8 1 -13 -8 -13 -20
0 -24 -7 -27 -39 -17 -10 3 -22 1 -26 -6 -4 -7 -14 -10 -21 -8 -7 2 12 20 44
39 52 31 70 49 49 49 -5 0 -17 8 -28 18 -10 9 -35 25 -54 34 -26 13 -30 17
-14 17 11 1 25 -4 31 -10z m-17 -59 c13 -9 13 -11 0 -20 -8 -5 -19 -10 -25
-10 -5 0 -17 5 -25 10 -13 9 -13 11 0 20 8 5 20 10 25 10 6 0 17 -5 25 -10z
m-353 -230 c3 -11 9 -20 14 -20 5 0 9 -13 9 -30 0 -43 -17 -37 -30 11 -9 34
-14 38 -26 29 -11 -10 -14 -9 -14 2 0 33 39 39 47 8z m-8 -70 c10 -16 20 -27
23 -24 4 3 6 -15 6 -40 -1 -39 -3 -43 -14 -28 -7 9 -15 14 -18 11 -3 -3 4 -16
15 -28 28 -30 17 -38 -17 -12 -20 16 -30 18 -40 10 -19 -16 -18 5 0 24 9 8 12
24 9 36 -6 24 9 28 27 6 7 -8 18 -15 24 -15 6 0 -1 11 -15 24 -29 25 -47 66
-30 66 6 0 19 -13 30 -30z"/>
<path d="M3100 4790 c0 -5 7 -10 16 -10 8 0 12 5 9 10 -3 6 -10 10 -16 10 -5
0 -9 -4 -9 -10z"/>
<path d="M3446 4323 c-6 -14 -5 -15 5 -6 7 7 10 15 7 18 -3 3 -9 -2 -12 -12z"/>
<path d="M3296 4251 c-4 -5 -2 -12 4 -16 6 -4 7 -12 3 -18 -4 -6 -8 -20 -8
-29 -2 -16 0 -16 18 2 15 17 22 19 33 9 11 -9 14 -8 14 3 0 24 -54 65 -64 49z
m54 -38 c0 -2 -5 -1 -10 2 -6 4 -19 1 -28 -7 -15 -11 -15 -11 -5 3 10 12 10
18 0 29 -6 7 0 5 16 -5 15 -9 27 -19 27 -22z"/>
<path d="M3436 4252 c-4 -7 -2 -12 4 -12 6 0 8 -5 4 -12 -6 -10 -4 -10 8 0 11
9 18 10 23 2 4 -6 -8 -17 -27 -25 -19 -8 -25 -14 -15 -15 9 0 17 -7 17 -16 0
-8 5 -12 10 -9 8 5 7 12 -2 23 -11 13 -11 15 4 10 10 -4 19 -1 22 9 7 17 -12
46 -24 38 -5 -3 -10 0 -12 7 -3 9 -6 9 -12 0z"/>
<path d="M3401 4221 c-7 -5 -9 -11 -5 -14 5 -3 15 1 22 9 14 16 5 18 -17 5z"/>
<path d="M3427 4090 c-9 -11 -13 -20 -8 -20 11 0 35 29 29 35 -2 2 -12 -4 -21
-15z"/>
<path d="M2315 4676 c4 -161 4 -303 1 -314 -5 -13 -13 -19 -22 -15 -10 4 -12
0 -7 -13 4 -12 3 -15 -5 -10 -13 8 -17 47 -4 45 4 -1 12 -1 19 0 17 1 13 69
-4 75 -9 4 -11 1 -7 -5 4 -7 2 -10 -5 -8 -19 7 -14 24 9 27 27 4 28 43 1 39
-11 -1 -20 3 -20 8 -1 6 7 10 17 10 13 0 17 8 15 40 -1 22 -2 57 -2 78 -1 38
-2 38 -37 35 l-35 -3 -3 -147 c-2 -117 0 -148 11 -148 18 0 16 -10 -4 -26 -17
-13 -17 -14 -1 -8 13 4 22 -4 35 -35 l17 -40 12 27 c10 25 11 24 11 -20 0 -41
-3 -48 -19 -48 -11 0 -17 4 -13 9 7 12 -12 24 -25 16 -8 -5 -7 -11 1 -21 8
-10 9 -18 0 -27 -12 -15 -5 -27 16 -27 10 0 13 7 9 23 -3 12 -3 16 0 9 5 -10
9 -10 20 -1 12 10 21 6 44 -16 31 -30 42 -25 15 5 -15 16 -14 18 11 18 16 0
21 -3 14 -8 -8 -5 -8 -10 -2 -14 5 -3 15 1 22 9 7 8 17 15 23 15 5 0 2 -9 -8
-20 -37 -40 -3 -19 46 30 28 28 46 50 40 50 -5 0 -13 -4 -16 -10 -3 -5 -11
-10 -17 -10 -6 0 -4 8 5 18 15 17 15 19 0 35 -9 9 -14 20 -10 24 4 3 14 -2 21
-13 8 -10 17 -16 20 -13 3 3 -7 18 -23 34 -24 22 -38 27 -75 27 l-46 -1 0 154
c0 131 -2 155 -15 155 -10 0 -15 10 -15 27 0 25 1 25 19 9 16 -14 19 -15 24
-2 3 8 1 16 -5 18 -13 5 -3 58 11 58 4 0 16 -20 25 -45 17 -44 36 -60 36 -30
0 8 -5 15 -11 15 -6 0 -8 9 -4 23 13 41 23 39 43 -7 23 -50 38 -61 28 -20 -7
28 0 64 14 64 5 0 14 -17 20 -37 15 -46 25 -59 35 -43 4 6 3 16 -2 21 -11 11
-5 56 8 65 20 12 7 30 -23 32 -48 4 -48 12 0 10 41 -1 46 -6 45 -45 -1 -7 3
-13 8 -13 5 0 9 5 9 11 0 7 8 18 18 25 16 13 16 15 0 28 -14 10 -18 28 -18 75
0 33 -4 61 -9 61 -4 0 -7 -15 -5 -32 l3 -33 -20 24 c-17 21 -22 22 -29 10 -6
-8 -6 -15 0 -17 13 -5 13 -49 0 -57 -6 -3 -19 14 -30 39 -10 25 -22 46 -24 46
-3 0 -10 -9 -16 -20 -9 -16 -8 -19 7 -13 13 5 15 3 10 -11 -4 -10 -7 -24 -7
-32 0 -29 -19 -13 -36 31 -9 25 -21 45 -25 45 -12 0 -11 -27 0 -34 10 -7 3
-44 -10 -52 -5 -3 -18 16 -29 41 -18 42 -22 46 -37 34 -15 -13 -15 -14 0 -17
21 -4 13 -48 -12 -74 -15 -16 -16 -13 -13 52 3 50 0 70 -8 70 -10 0 -11 -67
-5 -294z m185 146 c0 -5 -36 -7 -80 -6 -53 2 -80 -1 -80 -8 0 -6 -3 -9 -6 -5
-3 3 -3 10 0 15 7 11 166 14 166 4z m-210 -202 c0 -5 -7 -10 -15 -10 -8 0 -15
5 -15 10 0 6 7 10 15 10 8 0 15 -4 15 -10z m0 -55 c0 -8 -4 -15 -10 -15 -5 0
-10 7 -10 15 0 8 5 15 10 15 6 0 10 -7 10 -15z m10 -177 c0 -11 -12 -10 -30 2
-12 7 -10 9 8 7 12 0 22 -5 22 -9z"/>
<path d="M2801 4936 c-28 -28 -32 -39 -27 -62 l7 -27 30 30 c24 23 30 37 27
62 l-3 32 -34 -35z m9 -42 c-18 -21 -24 -10 -8 15 7 12 14 17 16 11 2 -6 -2
-17 -8 -26z"/>
<path d="M2630 4936 c0 -34 46 -43 53 -10 5 29 0 34 -30 34 -18 0 -23 -6 -23
-24z m40 0 c0 -3 -4 -8 -10 -11 -5 -3 -10 -1 -10 4 0 6 5 11 10 11 6 0 10 -2
10 -4z"/>
<path d="M2700 4929 c0 -26 8 -43 30 -64 l30 -29 0 35 c0 26 -8 43 -30 64
l-30 29 0 -35z m37 -24 c9 -25 -4 -29 -17 -6 -7 15 -7 21 0 21 6 0 13 -7 17
-15z"/>
<path d="M2852 4933 c2 -22 8 -28 28 -27 20 0 25 5 25 24 0 20 -6 26 -28 28
-26 3 -28 1 -25 -25z m38 -3 c0 -5 -4 -10 -10 -10 -5 0 -10 5 -10 10 0 6 5 10
10 10 6 0 10 -4 10 -10z"/>
<path d="M2630 4885 c0 -17 57 -55 81 -55 36 0 37 12 3 39 -24 19 -84 30 -84
16z m73 -37 c-5 -10 -33 10 -33 23 0 5 9 4 19 -3 11 -7 17 -16 14 -20z"/>
<path d="M2815 4860 l-29 -30 35 0 c26 0 43 8 64 30 l29 30 -35 0 c-26 0 -43
-8 -64 -30z m50 -1 c-4 -5 -13 -9 -22 -9 -13 0 -13 3 -3 15 13 15 35 11 25 -6z"/>
<path d="M2661 4794 c-38 -32 -39 -44 -3 -44 36 0 93 54 67 64 -26 9 -31 8
-64 -20z m36 -11 c-9 -9 -20 -13 -24 -9 -4 4 -1 11 7 16 25 16 35 11 17 -7z"/>
<path d="M2787 4805 c-23 -17 -15 -66 16 -97 16 -16 30 -28 32 -28 3 0 5 15 5
34 0 25 -7 40 -27 55 -14 12 -24 23 -21 26 2 3 15 -6 28 -20 16 -17 34 -25 59
-25 l35 0 -32 33 c-33 34 -68 42 -95 22z m73 -20 c10 -12 10 -15 -3 -15 -8 0
-17 7 -21 15 -3 8 -2 15 3 15 5 0 14 -7 21 -15z m-46 -41 c9 -24 7 -28 -9 -14
-17 14 -20 30 -6 30 5 0 12 -7 15 -16z"/>
<path d="M2728 4773 c-20 -20 -28 -40 -28 -63 l0 -35 31 31 c24 24 30 38 27
63 l-3 33 -27 -29z m3 -46 c-16 -16 -26 0 -10 19 9 11 15 12 17 4 2 -6 -1 -17
-7 -23z"/>
<path d="M2597 4715 c4 -40 2 -45 -16 -45 -20 0 -21 -5 -21 -155 0 -153 -2
-161 -32 -156 -5 0 -8 -3 -8 -9 0 -13 27 -13 35 0 4 6 15 8 26 5 18 -6 19 0
19 132 0 76 3 168 7 206 4 44 2 67 -5 67 -6 0 -8 -17 -5 -45z"/>
<path d="M2630 4710 c0 -25 4 -30 25 -30 21 0 25 5 25 30 0 25 -4 30 -25 30
-21 0 -25 -5 -25 -30z m40 0 c0 -5 -4 -10 -9 -10 -6 0 -13 5 -16 10 -3 6 1 10
9 10 9 0 16 -4 16 -10z"/>
<path d="M2852 4713 c2 -22 8 -28 28 -28 20 0 25 5 25 25 0 20 -6 26 -28 28
-26 3 -28 1 -25 -25z m38 -3 c0 -5 -4 -10 -10 -10 -5 0 -10 5 -10 10 0 6 5 10
10 10 6 0 10 -4 10 -10z"/>
<path d="M2008 4658 c-3 -7 -5 -75 -7 -150 -2 -133 -1 -138 19 -138 11 0 20
-4 20 -10 0 -5 -7 -10 -15 -10 -16 0 -19 -28 -8 -69 5 -21 7 -20 25 19 14 31
24 40 36 36 16 -6 16 -5 0 7 -10 8 -14 17 -8 23 5 5 9 61 10 124 2 196 5 180
-34 180 -19 0 -36 -6 -38 -12z m33 -32 c5 3 9 1 9 -4 0 -6 -7 -12 -15 -16 -11
-4 -15 1 -14 17 0 12 3 16 6 9 2 -6 9 -10 14 -6z m1 -61 c0 -5 -5 -11 -11 -13
-6 -2 -11 4 -11 13 0 9 5 15 11 13 6 -2 11 -8 11 -13z m-1 -59 c5 3 9 0 9 -5
0 -6 -7 -11 -15 -11 -8 0 -15 8 -14 18 0 10 3 12 6 4 2 -6 9 -10 14 -6z m7
-58 c-2 -6 -10 -13 -16 -14 -9 -2 -9 -1 -1 3 8 4 7 8 -2 14 -11 7 -10 9 4 9
10 0 17 -5 15 -12z m2 -56 c0 -5 -7 -9 -15 -9 -8 0 -15 4 -15 9 0 4 7 8 15 8
8 0 15 -4 15 -8z"/>
<path d="M2432 4603 c4 -24 24 -27 24 -3 0 11 -6 20 -14 20 -7 0 -12 -8 -10
-17z"/>
<path d="M2470 4597 c0 -16 3 -17 15 -7 8 7 15 16 15 20 0 3 -7 7 -15 7 -8 0
-15 -9 -15 -20z"/>
<path d="M2752 4575 c4 -4 -4 -19 -18 -32 -24 -22 -23 -24 16 -27 8 -1 15 -8
16 -16 3 -41 5 -42 29 -16 28 30 31 38 13 35 -29 -3 -38 2 -38 25 0 14 -6 28
-12 32 -7 4 -10 4 -6 -1z"/>
<path d="M2431 4541 c-10 -7 -9 -11 7 -22 11 -8 22 -26 25 -39 4 -25 4 -25 6
2 0 15 6 30 11 33 6 3 10 13 10 21 0 8 -4 14 -10 14 -5 0 -10 -10 -10 -22 0
-18 -2 -20 -9 -8 -6 8 -7 18 -5 22 7 10 -7 10 -25 -1z"/>
<path d="M2677 4512 c-8 -11 80 -98 90 -89 3 4 -14 28 -39 53 -25 25 -48 41
-51 36z"/>
<path d="M2456 4435 c-3 -8 -1 -15 4 -15 6 0 10 7 10 15 0 8 -2 15 -4 15 -2 0
-6 -7 -10 -15z"/>
<path d="M2140 4346 c0 -17 16 -30 23 -19 2 5 3 3 1 -3 -3 -15 42 -58 53 -51
5 3 9 -3 9 -14 0 -25 -11 -24 -33 4 -31 39 -39 39 -86 -7 l-45 -44 30 -36 c43
-53 63 -61 88 -36 11 11 20 16 20 12 0 -5 -10 -18 -23 -30 l-23 -22 -39 40
c-38 39 -55 43 -55 13 0 -9 6 -13 15 -9 11 4 15 0 13 -12 -2 -11 3 -17 14 -16
10 1 16 -3 15 -10 -1 -6 6 -10 16 -10 13 2 16 -3 12 -17 -5 -13 -1 -19 10 -19
11 0 15 6 10 19 -4 14 -1 19 12 17 10 0 17 5 16 12 -2 6 0 11 5 11 27 -5 31 2
20 27 -10 22 -10 28 6 40 12 8 16 19 12 30 -3 9 -1 23 5 30 9 11 8 19 -6 34
-10 11 -25 20 -33 20 -9 0 -12 3 -9 7 8 7 -31 53 -45 53 -4 0 -8 -6 -8 -14z
m44 -166 l-30 -30 -29 30 -29 30 29 30 29 30 30 -30 31 -30 -31 -30z"/>
<path d="M2125 4230 c-18 -20 -18 -21 5 -45 l24 -26 25 25 c24 25 24 26 6 46
-23 25 -37 25 -60 0z"/>
<path d="M2495 4340 c10 -11 20 -20 22 -20 2 0 -2 9 -9 20 -7 11 -17 20 -22
20 -5 0 -1 -9 9 -20z"/>
<path d="M2560 4335 c-8 -9 -8 -15 -2 -15 12 0 26 19 19 26 -2 2 -10 -2 -17
-11z"/>
<path d="M2584 4318 l-19 -23 23 19 c21 18 27 26 19 26 -2 0 -12 -10 -23 -22z"/>
<path d="M1782 4316 c-48 -18 -58 -32 -33 -45 16 -9 21 -21 21 -51 0 -44 -3
-43 87 -40 56 2 127 18 86 19 -13 1 -26 1 -30 2 -5 0 -23 10 -41 21 -30 19
-34 19 -51 4 -27 -25 -33 -20 -28 24 4 36 2 40 -14 35 -12 -4 -19 -2 -19 6 0
7 3 10 6 6 7 -6 64 19 64 28 0 7 -9 5 -48 -9z"/>
<path d="M2119 4323 c-1 -5 -1 -11 0 -15 0 -4 -6 -5 -14 -2 -10 4 -15 0 -15
-16 0 -11 -4 -19 -9 -15 -13 7 -24 -12 -15 -26 7 -13 74 48 74 68 0 14 -19 19
-21 6z"/>
<path d="M2521 4296 c-9 -10 -8 -16 3 -25 10 -9 16 -8 25 3 9 10 8 16 -3 25
-10 9 -16 8 -25 -3z"/>
<path d="M2593 4294 c-3 -8 -1 -20 4 -25 7 -7 11 -2 11 15 0 29 -6 33 -15 10z"/>
<path d="M1910 4270 c0 -11 5 -20 10 -20 6 0 10 9 10 20 0 11 -4 20 -10 20 -5
0 -10 -9 -10 -20z"/>
<path d="M1946 4265 c4 -8 8 -15 10 -15 2 0 4 7 4 15 0 8 -4 15 -10 15 -5 0
-7 -7 -4 -15z"/>
<path d="M2584 4251 c20 -22 26 -25 26 -13 0 4 -10 13 -22 21 -23 14 -23 14
-4 -8z"/>
<path d="M2035 4240 c-3 -5 -3 -10 2 -11 4 0 -3 -5 -17 -10 -19 -8 -22 -12
-10 -19 8 -5 18 -6 22 -4 4 3 5 -2 2 -10 -4 -10 -1 -16 9 -16 10 0 14 11 14
40 0 38 -9 51 -22 30z"/>
<path d="M2490 4226 c-14 -12 -36 -36 -50 -52 -22 -25 -22 -26 -2 -10 22 19
22 19 20 -6 -2 -19 -7 -24 -18 -20 -12 4 -12 2 3 -15 23 -27 22 -40 -3 -18
-11 10 -20 14 -20 8 0 -12 43 -53 56 -53 5 0 9 -65 8 -155 -1 -144 1 -155 18
-155 20 0 24 -20 7 -37 -8 -8 -8 -13 0 -17 6 -4 11 -15 11 -24 0 -13 -2 -13
-15 4 -8 10 -15 14 -15 7 0 -6 4 -14 9 -18 5 -3 12 -19 16 -35 4 -17 11 -30
16 -30 12 0 12 17 -1 25 -5 3 -10 13 -10 21 0 20 20 17 21 -3 0 -12 4 -9 10 9
7 19 6 36 -5 62 -14 34 -14 36 5 36 25 0 35 25 19 45 -7 9 -8 15 -2 15 5 0 10
23 10 50 0 28 -5 50 -10 50 -7 0 -7 4 0 13 5 6 9 35 8 62 -3 59 1 75 20 75 16
0 16 2 14 85 -1 48 -6 65 -24 83 -22 22 -63 22 -50 0 4 -7 9 -6 14 1 5 9 10 8
19 -2 10 -12 5 -14 -29 -13 -43 1 -47 5 -28 24 21 21 4 12 -22 -12z m54 -528
c9 -37 7 -43 -9 -22 -16 21 -19 44 -6 44 5 0 11 -10 15 -22z"/>
<path d="M2325 4170 c10 -11 20 -20 23 -20 3 0 -3 9 -13 20 -10 11 -20 20 -23
20 -3 0 3 -9 13 -20z"/>
<path d="M2225 4170 c-4 -6 -3 -16 3 -22 6 -6 12 -6 17 2 4 6 3 16 -3 22 -6 6
-12 6 -17 -2z"/>
<path d="M2016 4137 c-12 -46 -7 -65 20 -71 15 -4 28 -5 30 -3 2 1 -7 24 -20
50 -21 41 -25 44 -30 24z"/>
<path d="M2280 4148 c0 -10 -4 -18 -10 -18 -5 0 -10 -9 -10 -19 0 -11 -5 -23
-11 -27 -17 -10 4 -24 29 -18 17 5 22 14 22 38 0 17 -5 38 -10 46 -8 13 -10
12 -10 -2z m10 -58 c0 -5 -5 -10 -11 -10 -5 0 -7 5 -4 10 3 6 8 10 11 10 2 0
4 -4 4 -10z"/>
<path d="M2371 4146 c-8 -10 -8 -16 3 -25 19 -16 40 9 21 26 -10 10 -16 9 -24
-1z"/>
<path d="M1763 4137 c-18 -5 -33 -14 -33 -20 0 -5 7 -7 15 -3 10 3 15 -1 16
-12 0 -14 2 -14 6 -2 3 8 12 21 21 27 22 18 13 21 -25 10z"/>
<path d="M1880 4138 c0 -15 18 -17 36 -4 17 13 17 14 -9 13 -15 -1 -27 -5 -27
-9z"/>
<path d="M2313 4128 c-2 -16 1 -18 10 -9 7 7 8 14 1 21 -6 6 -10 2 -11 -12z"/>
<path d="M1850 4130 c-12 -7 -12 -12 -2 -22 14 -14 35 1 24 19 -5 8 -13 9 -22
3z"/>
<path d="M2327 4102 c-25 -27 -21 -36 5 -12 12 11 19 22 16 25 -2 3 -12 -3
-21 -13z"/>
<path d="M2344 4078 l-19 -23 23 19 c21 18 27 26 19 26 -2 0 -12 -10 -23 -22z"/>
<path d="M2414 4083 c16 -20 17 -23 3 -23 -8 0 -17 6 -20 13 -3 8 -12 5 -29
-11 -19 -17 -25 -33 -26 -67 0 -25 4 -45 9 -45 6 0 7 -6 2 -12 -4 -7 -9 -57
-9 -111 -1 -95 -1 -97 20 -91 19 5 19 5 4 -7 -14 -11 -15 -22 -9 -56 5 -23 5
-40 1 -38 -13 8 -20 -42 -10 -70 11 -29 9 -95 -2 -95 -5 0 -8 -4 -8 -10 0 -5
24 -10 54 -10 l54 0 -9 36 c-6 19 -8 41 -6 47 2 7 -3 21 -12 32 -15 18 -15 19
1 6 15 -11 19 -11 24 4 4 9 2 33 -4 53 -15 51 -21 92 -12 87 5 -3 11 2 14 11
9 24 7 29 -6 16 -15 -15 -28 -15 -28 -1 0 5 4 8 9 4 16 -9 19 23 19 177 -1
138 -2 148 -22 165 l-21 18 19 -22z m22 -490 c-3 -4 -6 -1 -6 6 0 7 -4 9 -10
6 -11 -7 -14 8 -3 19 4 3 11 -1 16 -9 5 -9 6 -19 3 -22z m-63 -8 c-3 -9 -8
-14 -10 -11 -3 3 -2 9 2 15 9 16 15 13 8 -4z"/>
<path d="M2788 4093 c7 -3 16 -2 19 1 4 3 -2 6 -13 5 -11 0 -14 -3 -6 -6z"/>
<path d="M2000 3905 l0 -155 25 0 c24 0 25 3 25 58 0 33 5 64 13 71 9 10 9 12
0 7 -9 -5 -13 16 -15 80 -3 82 -4 87 -25 90 l-23 4 0 -155z"/>
<path d="M2265 4051 c-3 -2 -5 -41 -5 -86 0 -51 -5 -86 -12 -94 -10 -11 -10
-13 0 -7 9 5 12 -8 12 -53 0 -58 1 -61 24 -61 l25 0 0 154 c-1 147 -2 155 -20
153 -11 -1 -22 -3 -24 -6z"/>
<path d="M2622 3969 c-2 -80 1 -99 15 -110 15 -12 16 -12 7 1 -5 8 -12 58 -15
110 l-5 95 -2 -96z"/>
<path d="M2913 4053 c-9 -3 -13 -30 -13 -83 0 -123 -38 -170 -137 -170 -54 0
-63 -6 -41 -28 28 -28 72 -14 136 46 l62 58 -1 -61 c-1 -33 -3 -52 -6 -42 -4
17 -6 17 -23 -3 -17 -19 -28 -21 -140 -19 -68 0 -117 4 -111 8 9 6 8 11 -4 21
-13 10 -15 9 -16 -6 0 -11 -2 -41 -4 -69 -1 -27 -1 -38 2 -22 7 45 38 28 38
-22 0 -13 5 -26 12 -28 7 -3 9 4 6 19 -6 22 -5 22 13 6 18 -16 20 -15 42 7 14
14 19 26 12 30 -5 3 -10 2 -10 -4 0 -15 -57 7 -64 25 -4 12 13 14 99 14 58 0
105 -4 105 -9 0 -16 -29 -33 -52 -31 -40 4 -42 1 -13 -26 20 -18 31 -22 38
-15 16 16 27 13 20 -5 -4 -12 -2 -15 8 -12 8 3 14 18 14 38 0 38 21 52 28 18
2 -13 5 -5 6 19 0 23 5 43 11 45 11 3 13 51 11 206 0 56 -4 102 -8 101 -5 0
-14 -3 -20 -6z m4 -75 c-3 -7 -5 -2 -5 12 0 14 2 19 5 13 2 -7 2 -19 0 -25z
m0 -75 c-3 -10 -5 -4 -5 12 0 17 2 24 5 18 2 -7 2 -21 0 -30z"/>
<path d="M2970 3978 c-1 -46 -2 -117 -3 -159 -2 -68 0 -75 16 -71 9 2 17 7 17
11 1 15 2 191 1 244 -1 44 -5 57 -16 57 -12 0 -15 -16 -15 -82z"/>
<path d="M3029 4038 c-1 -35 -1 -156 0 -225 1 -49 4 -63 16 -63 10 0 15 11 16
33 0 17 2 49 3 70 1 20 -1 37 -4 37 -3 0 -3 38 -2 85 3 72 1 85 -12 85 -10 0
-16 -9 -17 -22z"/>
<path d="M3089 4033 c-4 -94 3 -279 11 -287 16 -16 19 11 22 167 3 134 2 147
-14 147 -13 0 -18 -8 -19 -27z"/>
<path d="M3147 3908 c1 -96 -2 -155 -8 -159 -6 -3 2 -6 18 -5 27 1 28 2 26 56
0 30 -2 101 -2 158 -1 90 -3 102 -18 102 -16 0 -18 -13 -16 -152z"/>
<path d="M2759 4038 c-7 -27 -7 -53 2 -70 6 -11 7 -18 1 -14 -5 3 -15 -1 -22
-9 -14 -17 -15 -16 28 -20 31 -2 42 8 22 20 -5 3 -10 26 -10 51 0 24 -4 44
-10 44 -5 0 -10 -1 -11 -2z"/>
<path d="M2081 4013 c-14 -27 -15 -66 -1 -58 6 4 8 11 5 16 -4 5 1 9 9 9 20 0
51 -59 38 -72 -7 -7 -12 -3 -17 11 -3 12 -11 21 -17 21 -6 0 -8 -9 -3 -22 3
-13 7 -28 7 -35 1 -7 5 -10 9 -7 10 6 39 -24 39 -41 0 -8 -4 -17 -10 -20 -20
-13 -10 -35 16 -35 27 0 28 7 10 51 -8 18 50 83 65 73 7 -4 7 1 0 15 -15 27
-28 27 -36 0 -5 -14 -10 -18 -17 -11 -6 6 -4 20 6 40 22 42 34 48 45 20 l10
-23 0 25 c1 25 -15 50 -30 50 -4 0 -16 -16 -28 -35 -20 -35 -41 -46 -41 -22 0
6 -11 25 -24 41 -23 30 -23 30 -35 9z m84 -133 c-5 -8 -11 -8 -17 -2 -6 6 -7
16 -3 22 5 8 11 8 17 2 6 -6 7 -16 3 -22z"/>
<path d="M2670 4020 c-11 -8 -7 -9 15 -4 37 8 45 14 19 14 -10 0 -26 -5 -34
-10z"/>
<path d="M2807 4023 c-3 -5 10 -8 28 -8 18 0 31 3 28 8 -2 4 -15 7 -28 7 -13
0 -26 -3 -28 -7z"/>
<path d="M2677 3929 c7 -7 15 -10 18 -7 3 3 -2 9 -12 12 -14 6 -15 5 -6 -5z"/>
<path d="M2845 3930 c-3 -5 -1 -10 4 -10 6 0 11 5 11 10 0 6 -2 10 -4 10 -3 0
-8 -4 -11 -10z"/>
<path d="M2744 3879 c-6 -10 11 -29 26 -29 3 0 11 4 19 9 17 11 5 31 -19 31
-10 0 -22 -5 -26 -11z m36 -9 c0 -5 -4 -10 -9 -10 -6 0 -13 5 -16 10 -3 6 1
10 9 10 9 0 16 -4 16 -10z"/>
<path d="M2070 3841 c0 -6 4 -13 10 -16 6 -3 7 1 4 9 -7 18 -14 21 -14 7z"/>
<path d="M2670 3821 c0 -10 19 -25 25 -20 1 2 -3 10 -11 17 -8 7 -14 8 -14 3z"/>
<path d="M2949 3699 l-24 -20 28 17 c15 9 27 18 27 20 0 8 -8 4 -31 -17z"/>
<path d="M3160 3711 c-8 -6 -17 -8 -20 -6 -10 6 1 -200 12 -212 6 -7 18 -13
27 -12 11 0 9 3 -6 9 -22 9 -23 15 -23 106 0 80 3 99 18 110 19 15 14 18 -8 5z"/>
<path d="M3000 3651 l5 -56 3 50 c2 27 9 53 15 57 7 4 4 7 -8 6 -18 -2 -20 -7
-15 -57z"/>
<path d="M3201 3693 c7 -12 15 -20 18 -17 3 2 -3 12 -13 22 -17 16 -18 16 -5
-5z"/>
<path d="M3067 3680 c-3 -11 -1 -20 4 -20 5 0 9 9 9 20 0 11 -2 20 -4 20 -2 0
-6 -9 -9 -20z"/>
<path d="M2963 3675 c-9 -10 -8 -14 8 -18 12 -3 19 0 19 8 0 20 -13 25 -27 10z"/>
<path d="M3030 3675 c0 -8 4 -15 10 -15 5 0 7 7 4 15 -4 8 -8 15 -10 15 -2 0
-4 -7 -4 -15z"/>
<path d="M3103 3676 c0 -8 6 -17 13 -20 7 -3 11 2 10 12 -3 20 -23 27 -23 8z"/>
<path d="M3160 3670 c0 -13 5 -18 14 -14 8 3 12 12 9 20 -8 21 -23 17 -23 -6z"/>
<path d="M2910 3569 c0 -81 -2 -90 -15 -79 -9 7 -14 24 -13 38 2 14 -3 27 -9
29 -7 3 -13 -3 -13 -12 0 -14 -3 -15 -14 -6 -11 10 -19 8 -35 -6 -25 -21 -27
-35 -5 -26 16 6 64 -15 64 -29 0 -4 -48 -8 -107 -8 l-106 0 19 21 c13 15 26
19 46 15 33 -7 34 -6 8 25 -19 20 -24 22 -42 10 -18 -11 -20 -11 -15 3 4 11 1
16 -10 16 -12 0 -14 -7 -10 -29 7 -35 -16 -62 -30 -37 -5 10 -8 -16 -6 -67 1
-45 2 -128 2 -184 1 -99 2 -103 23 -103 17 0 19 3 10 12 -17 17 -15 28 6 28
16 1 16 1 0 14 -10 7 -15 15 -12 19 10 10 11 42 1 55 -7 9 -4 12 9 12 18 1 18
1 2 14 -10 7 -15 16 -11 20 4 4 1 12 -7 17 -11 8 -12 12 -3 15 7 3 9 12 6 20
-3 8 0 14 6 14 6 0 11 5 11 10 0 6 -6 10 -14 10 -11 0 -12 5 -3 25 12 24 15
24 97 21 101 -5 99 -4 81 -15 -7 -5 -10 -14 -7 -20 4 -6 12 -9 17 -6 5 4 9 1
9 -4 0 -14 -27 -14 -35 -1 -4 6 -11 8 -16 5 -5 -3 -6 1 -3 9 9 24 -29 20 -51
-4 -10 -11 -25 -20 -34 -20 -13 1 -12 3 3 15 15 11 17 18 8 27 -8 8 -15 8 -26
-1 -21 -18 -8 -51 20 -51 27 0 31 -12 9 -30 -22 -18 -18 -40 11 -71 14 -15 23
-32 20 -38 -10 -16 -26 -13 -20 3 7 18 -22 28 -36 11 -8 -10 -7 -17 6 -30 12
-12 14 -19 5 -28 -14 -14 -15 -37 -1 -37 15 0 51 40 45 50 -3 5 -1 11 5 15 17
11 11 38 -16 66 l-26 27 27 36 c29 38 39 38 72 -3 l22 -28 -29 -33 c-32 -36
-36 -45 -20 -55 6 -3 10 -15 10 -25 0 -10 10 -26 22 -34 47 -33 51 -13 8 35
-16 19 -30 37 -30 41 0 3 12 21 26 38 l27 31 -23 31 c-13 18 -17 28 -9 26 21
-8 49 11 49 32 0 11 -5 20 -11 20 -5 0 -7 5 -4 10 10 16 23 12 36 -11 9 -17 8
-23 -2 -30 -8 -5 -9 -9 -4 -9 14 0 13 -83 0 -92 -6 -5 -5 -8 3 -8 9 0 11 -7 7
-21 -5 -15 -4 -19 4 -15 6 4 11 2 11 -3 0 -6 -5 -11 -10 -11 -7 0 -7 -6 0 -20
9 -17 8 -20 -7 -20 -16 -1 -16 -2 -3 -13 8 -7 15 -18 15 -26 0 -8 6 -16 13
-18 9 -4 12 52 12 256 0 144 -2 261 -5 261 -3 0 -5 -41 -5 -91z"/>
<path d="M2945 3640 c-3 -6 1 -7 9 -4 9 3 16 1 16 -6 0 -6 5 -8 11 -4 8 4 7 9
-2 15 -18 11 -26 11 -34 -1z"/>
<path d="M3037 3643 c-13 -13 -7 -25 7 -14 11 10 17 8 25 -6 9 -16 10 -16 11
-2 0 9 -7 20 -16 23 -19 7 -19 7 -27 -1z"/>
<path d="M3100 3635 c7 -9 15 -13 17 -11 7 7 -7 26 -19 26 -6 0 -6 -6 2 -15z"/>
<path d="M3170 3640 c-8 -5 -11 -12 -7 -17 5 -4 12 -1 16 6 5 8 14 10 21 6 9
-5 11 -4 6 3 -9 14 -16 15 -36 2z"/>
<path d="M2612 3615 c0 -16 2 -22 5 -12 2 9 2 23 0 30 -3 6 -5 -1 -5 -18z"/>
<path d="M2942 3604 c2 -16 7 -19 25 -16 12 2 20 8 17 13 -3 5 -10 6 -16 3 -6
-4 -14 0 -19 7 -6 10 -8 8 -7 -7z"/>
<path d="M3166 3603 c-11 -12 -6 -19 14 -19 11 0 20 3 20 7 0 10 -27 19 -34
12z"/>
<path d="M2826 3592 c-2 -4 4 -8 14 -8 10 0 16 4 14 8 -3 4 -9 8 -14 8 -5 0
-11 -4 -14 -8z"/>
<path d="M3025 3590 c3 -5 12 -7 20 -3 21 7 19 13 -6 13 -11 0 -18 -4 -14 -10z"/>
<path d="M3083 3588 c-16 -20 -23 -48 -13 -48 5 0 10 10 12 22 2 14 13 25 28
29 22 6 22 7 4 8 -12 1 -26 -5 -31 -11z"/>
<path d="M2508 3553 c-23 -49 -16 -53 11 -8 23 40 25 45 14 45 -5 -1 -16 -17
-25 -37z"/>
<path d="M3002 3543 c-1 -29 0 -53 2 -53 2 0 13 -3 23 -6 17 -5 17 -5 1 8 -9
8 -18 33 -21 59 l-4 44 -1 -52z"/>
<path d="M3206 3558 c-6 -22 -7 -22 -21 -4 -8 11 -18 16 -22 11 -5 -4 -2 -10
5 -12 6 -3 12 -9 12 -14 0 -6 -4 -7 -10 -4 -5 3 -10 2 -10 -4 0 -20 15 -19 42
3 18 14 24 26 19 34 -6 10 -10 8 -15 -10z"/>
<path d="M2612 3545 c0 -16 2 -22 5 -12 2 9 2 23 0 30 -3 6 -5 -1 -5 -18z"/>
<path d="M2970 3559 c0 -6 -8 -9 -20 -6 -18 5 -18 4 -3 -19 18 -27 28 -30 36
-10 4 11 1 13 -11 10 -15 -5 -15 -4 1 9 12 10 14 17 8 22 -6 3 -11 1 -11 -6z"/>
<path d="M3025 3560 c-3 -5 -1 -10 6 -10 7 0 9 -8 6 -21 -4 -16 -3 -18 8 -9
10 8 15 8 21 -1 4 -7 2 -15 -4 -17 -7 -2 -12 -8 -12 -14 0 -7 4 -7 13 1 10 8
17 7 27 -2 7 -6 -2 9 -20 36 -37 52 -36 51 -45 37z"/>
<path d="M3100 3553 c-10 -12 -11 -18 -2 -21 7 -2 10 -8 6 -13 -3 -5 -1 -9 4
-9 6 0 13 7 16 16 4 9 2 13 -5 8 -8 -4 -9 1 -4 15 8 25 5 26 -15 4z"/>
<path d="M2516 3514 c-7 -19 3 -64 15 -64 12 0 11 7 -3 30 -11 17 -10 22 1 29
8 5 9 11 3 15 -5 3 -13 -1 -16 -10z"/>
<path d="M2952 3494 c9 -9 21 -15 27 -13 6 2 -2 10 -17 17 -25 11 -25 11 -10
-4z"/>
<path d="M2812 3263 c-19 -7 -4 -23 16 -17 14 5 15 4 2 -5 -16 -11 -8 -27 9
-16 26 16 3 48 -27 38z"/>
<path d="M2755 3189 c-9 -26 12 -51 24 -30 10 15 3 51 -9 51 -5 0 -12 -9 -15
-21z"/>
<path d="M1250 2775 l0 -75 53 2 c50 1 50 2 10 5 -40 4 -43 6 -43 33 0 26 4
29 38 33 l37 4 -37 1 c-33 2 -38 5 -38 27 0 22 4 25 35 25 19 0 35 5 35 10 0
6 -20 10 -45 10 l-45 0 0 -75z"/>
<path d="M1392 2838 c-23 -23 -13 -48 26 -66 45 -21 54 -32 40 -49 -15 -18
-38 -16 -61 5 -16 13 -19 14 -15 2 7 -22 48 -40 72 -31 13 5 22 19 24 35 3 22
-2 29 -33 42 -40 16 -55 41 -34 55 20 12 25 11 44 -7 20 -20 33 -11 15 11 -15
18 -61 20 -78 3z"/>
<path d="M1510 2840 c0 -5 11 -10 25 -10 24 0 25 -2 25 -65 0 -86 18 -84 22 3
3 57 6 67 21 64 9 -2 17 2 17 8 0 6 -23 10 -55 10 -30 0 -55 -4 -55 -10z"/>
<path d="M1681 2829 c-5 -13 -18 -48 -30 -76 -11 -29 -17 -53 -12 -53 6 0 13
9 16 20 5 15 15 20 42 20 26 0 36 -5 40 -20 3 -11 9 -20 14 -20 12 0 13 -2
-17 71 -32 80 -41 89 -53 58z m39 -66 c0 -7 -11 -13 -25 -13 -29 0 -28 -2 -14
40 l12 33 13 -24 c7 -13 13 -30 14 -36z"/>
<path d="M1800 2775 l0 -75 33 0 c43 0 69 28 70 76 1 44 -29 74 -74 74 l-29 0
0 -75z m80 36 c24 -46 -4 -107 -47 -99 -14 3 -19 14 -21 61 l-3 57 30 0 c20 0
34 -7 41 -19z"/>
<path d="M1968 2839 c-22 -13 -32 -67 -19 -102 13 -33 48 -49 76 -34 29 15 35
27 35 73 0 61 -44 92 -92 63z m75 -46 c11 -55 -33 -102 -68 -73 -16 13 -20 77
-7 96 22 33 67 19 75 -23z"/>
<path d="M2170 2775 c0 -43 4 -75 10 -75 6 0 10 14 10 30 0 28 3 30 35 30 41
0 62 28 46 59 -12 22 -32 31 -72 31 l-29 0 0 -75z m90 32 c0 -20 -22 -37 -47
-37 -19 0 -23 5 -23 29 0 20 6 31 18 34 22 5 52 -10 52 -26z"/>
<path d="M2318 2844 c-4 -7 -7 -42 -7 -78 l1 -66 47 2 c42 1 43 2 9 5 l-37 4
-3 72 c-2 40 -6 67 -10 61z"/>
<path d="M2438 2844 c-13 -13 -9 -109 5 -128 16 -21 60 -24 82 -6 18 15 22
146 5 135 -6 -4 -10 -30 -9 -59 3 -59 -4 -76 -30 -76 -29 0 -40 21 -43 84 -2
32 -6 54 -10 50z"/>
<path d="M2590 2775 c0 -43 4 -75 10 -75 6 0 10 14 10 30 0 23 5 30 19 30 11
0 23 -12 31 -30 7 -16 16 -30 21 -30 13 0 11 13 -6 37 -13 18 -13 22 0 33 21
18 19 57 -4 70 -11 5 -33 10 -50 10 l-31 0 0 -75z m80 25 c0 -18 -19 -30 -46
-30 -22 0 -18 58 4 62 22 6 42 -10 42 -32z"/>
<path d="M2730 2775 c0 -43 4 -75 10 -75 6 0 10 32 10 75 0 43 -4 75 -10 75
-6 0 -10 -32 -10 -75z"/>
<path d="M2800 2775 c0 -43 4 -75 10 -75 6 0 10 26 10 58 l0 57 38 -57 c20
-32 40 -58 45 -58 4 0 6 35 5 78 -2 69 -2 71 -5 20 -2 -32 -7 -58 -11 -58 -4
0 -22 25 -40 55 -18 30 -37 55 -43 55 -5 0 -9 -34 -9 -75z"/>
<path d="M3006 2841 c-17 -27 -55 -141 -47 -141 5 0 13 9 16 20 5 15 15 20 40
20 25 0 35 -5 40 -20 3 -11 11 -20 17 -20 6 0 7 7 3 18 -4 9 -16 40 -27 67
-22 57 -33 71 -42 56z m29 -63 c6 -25 5 -28 -19 -28 -30 0 -29 -2 -15 39 12
35 24 31 34 -11z"/>
<path d="M3126 2834 c-9 -8 -16 -21 -17 -27 0 -7 -2 -25 -3 -41 -2 -39 23 -68
59 -68 27 0 56 24 54 46 0 6 -7 1 -16 -11 -30 -45 -83 -18 -83 42 0 32 21 65
41 65 5 0 18 -9 30 -21 26 -26 39 -16 14 11 -22 24 -58 26 -79 4z"/>
<path d="M3260 2775 c0 -43 4 -75 10 -75 6 0 10 32 10 75 0 43 -4 75 -10 75
-6 0 -10 -32 -10 -75z"/>
<path d="M3347 2837 c-10 -6 -20 -29 -24 -49 -8 -50 16 -88 57 -88 39 0 60 24
60 68 0 68 -48 103 -93 69z m75 -52 c5 -42 -14 -75 -42 -75 -23 0 -40 28 -40
67 1 73 73 80 82 8z"/>
<path d="M3486 2842 c-9 -15 -5 -142 5 -142 5 0 9 23 9 50 0 28 3 50 8 50 4 0
22 -23 40 -50 17 -28 37 -50 42 -50 6 0 10 32 10 75 0 88 -18 102 -22 18 l-3
-58 -28 47 c-32 52 -53 73 -61 60z"/>
<path d="M3670 2788 c-13 -35 -25 -69 -27 -75 -3 -7 -1 -13 5 -13 5 0 12 9 15
20 7 28 62 28 77 -1 7 -11 14 -18 17 -15 7 7 -47 146 -57 146 -4 0 -18 -28
-30 -62z m49 -20 c1 -12 -6 -18 -19 -18 -23 0 -24 8 -9 47 10 26 12 27 19 8 5
-11 9 -28 9 -37z"/>
<path d="M3800 2775 l0 -75 48 2 c43 1 44 2 10 5 l-38 4 0 70 c0 39 -4 69 -10
69 -6 0 -10 -32 -10 -75z"/>
<path d="M3997 2843 c-4 -3 -7 -37 -7 -75 l0 -68 39 0 c44 0 71 26 71 68 0 26
-17 63 -34 74 -14 10 -60 10 -69 1z m71 -25 c17 -17 15 -74 -4 -92 -8 -9 -24
-16 -35 -16 -17 0 -19 7 -19 60 0 56 2 60 23 60 13 0 28 -5 35 -12z"/>
<path d="M4140 2775 l0 -75 53 2 c50 1 50 2 10 5 -40 4 -43 6 -43 33 0 26 4
29 38 33 l37 4 -37 1 c-33 2 -38 5 -38 27 0 22 4 25 34 25 19 0 38 5 41 10 4
6 -13 10 -44 10 l-51 0 0 -75z"/>
<path d="M1920 2631 c-80 -18 -131 -61 -167 -139 -26 -57 -24 -222 4 -283 50
-111 164 -155 299 -114 62 18 100 54 131 122 23 50 25 64 21 162 -3 99 -6 112
-33 156 -47 77 -156 117 -255 96z m102 -52 c33 -18 59 -92 65 -187 13 -196
-55 -307 -157 -255 -49 25 -69 89 -70 216 0 117 13 178 47 212 28 27 78 34
115 14z"/>
<path d="M1210 2616 c0 -8 9 -18 20 -21 19 -6 20 -15 20 -235 0 -219 -1 -230
-20 -240 -45 -24 -16 -30 148 -30 205 0 241 12 273 85 34 76 5 151 -69 182
l-35 15 41 24 c106 63 93 194 -22 223 -25 6 -115 11 -200 11 -129 0 -156 -3
-156 -14z m303 -55 c11 -10 21 -38 24 -62 3 -36 0 -50 -20 -73 -21 -26 -32
-30 -85 -34 l-62 -4 0 94 c0 52 3 97 6 101 14 14 118 -3 137 -22z m-32 -221
c42 -12 61 -42 63 -98 2 -78 -36 -112 -124 -112 l-50 0 0 103 c0 57 3 107 7
110 9 10 63 8 104 -3z"/>
<path d="M2277 2623 c-4 -3 4 -16 17 -28 l25 -23 -2 -217 c-2 -212 -3 -217
-24 -235 -13 -10 -23 -21 -23 -24 0 -3 85 -6 189 -6 l188 0 7 46 c10 75 7 101
-10 108 -22 8 -40 -8 -47 -42 -10 -50 -41 -72 -102 -72 l-55 0 0 230 c0 219 1
230 20 240 11 6 20 15 20 20 0 11 -193 14 -203 3z"/>
<path d="M2720 2617 c0 -7 9 -18 20 -25 19 -12 20 -23 20 -237 0 -214 -1 -225
-20 -235 -41 -22 -18 -30 85 -30 98 0 132 10 85 25 -11 3 -22 16 -26 29 -3 12
-4 115 -2 230 3 203 3 208 26 224 13 10 20 21 16 25 -4 4 -52 7 -106 7 -72 0
-98 -3 -98 -13z"/>
<path d="M2980 2623 c0 -5 11 -18 24 -30 13 -13 31 -50 40 -85 10 -35 31 -108
47 -163 17 -55 39 -131 51 -170 26 -88 32 -95 78 -95 l37 0 58 153 c129 340
136 356 156 362 10 4 19 13 19 21 0 11 -18 14 -85 14 -87 0 -100 -6 -65 -28
13 -8 20 -23 20 -44 0 -37 -102 -340 -111 -330 -11 12 -89 307 -89 335 0 16 8
30 20 37 42 22 18 30 -90 30 -60 0 -110 -3 -110 -7z"/>
<path d="M3540 2620 c0 -5 9 -14 20 -20 19 -10 20 -21 20 -245 0 -225 -1 -234
-20 -240 -47 -15 -13 -25 85 -25 58 0 105 3 105 8 0 4 -9 13 -20 20 -19 12
-20 23 -20 240 0 216 1 228 20 240 40 25 20 32 -85 32 -61 0 -105 -4 -105 -10z"/>
<path d="M4022 2605 c-7 -14 -48 -123 -93 -243 -56 -152 -88 -223 -105 -237
-13 -12 -24 -24 -24 -28 0 -4 38 -7 85 -7 80 0 109 11 65 25 -27 9 -29 39 -8
108 l11 38 86 -3 86 -3 15 -59 c14 -57 14 -58 -8 -76 -12 -10 -22 -21 -22 -24
0 -3 50 -6 110 -6 102 0 138 10 90 25 -21 7 -31 34 -125 353 l-48 162 -52 0
c-46 0 -53 -3 -63 -25z m61 -195 c15 -53 27 -99 27 -103 0 -4 -32 -7 -70 -7
l-70 0 6 28 c4 15 15 45 24 67 9 22 22 59 30 83 7 23 16 39 20 35 4 -4 19 -51
33 -103z"/>
<path d="M1756 1543 c-3 -4 -6 -64 -6 -135 l0 -128 26 0 27 0 -6 96 c-3 53 -2
93 3 88 4 -5 22 -48 41 -96 43 -117 56 -117 99 2 18 50 36 93 41 95 4 3 5 -38
2 -90 l-6 -95 27 0 27 0 -3 133 -3 132 -28 0 c-27 0 -31 -6 -65 -97 -20 -54
-39 -98 -43 -98 -4 0 -22 44 -42 97 -31 87 -37 98 -60 100 -14 1 -28 -1 -31
-4z"/>
<path d="M2087 1543 c-9 -8 -9 -210 -1 -240 4 -14 14 -23 25 -23 18 0 19 9 19
135 0 124 -1 135 -18 135 -10 0 -22 -3 -25 -7z"/>
<path d="M2190 1415 c0 -128 1 -135 20 -135 19 0 20 7 20 91 0 49 4 88 8 85 5
-3 32 -44 61 -91 43 -69 57 -85 77 -85 l24 0 0 136 c0 135 0 135 -22 132 -22
-3 -23 -8 -24 -86 -1 -46 -4 -85 -7 -88 -3 -3 -26 29 -52 71 -54 86 -70 105
-91 105 -11 0 -14 -25 -14 -135z"/>
<path d="M2460 1413 c0 -126 1 -133 20 -133 19 0 20 7 20 133 0 126 -1 133
-20 133 -19 0 -20 -7 -20 -133z"/>
<path d="M2603 1540 c-30 -12 -56 -55 -48 -79 8 -25 48 -54 97 -70 62 -20 60
-81 -3 -81 -27 0 -59 22 -59 41 0 5 -9 9 -20 9 -29 0 -25 -34 6 -59 36 -29
116 -29 144 -1 26 26 26 72 -1 96 -12 10 -40 26 -62 35 -46 18 -63 38 -54 63
10 24 73 22 89 -4 13 -21 48 -28 48 -9 0 23 -21 47 -51 58 -37 13 -56 13 -86
1z"/>
<path d="M2775 1542 c-17 -18 -2 -32 35 -32 l40 0 0 -115 c0 -108 1 -115 20
-115 18 0 20 8 22 113 l3 112 43 3 c32 2 42 7 42 20 0 15 -13 18 -100 19 -54
0 -102 -2 -105 -5z"/>
<path d="M3019 1546 c-5 -6 -9 -223 -5 -242 6 -23 10 -24 91 -24 69 0 85 3 85
15 0 12 -14 15 -65 15 l-65 0 0 45 0 45 55 0 c42 0 55 3 55 15 0 12 -13 15
-55 15 l-55 0 0 40 0 40 65 0 c51 0 65 3 65 15 0 8 -6 15 -12 16 -34 2 -158 6
-159 5z"/>
<path d="M3230 1413 c0 -126 1 -133 20 -133 17 0 20 7 20 50 0 48 1 50 28 50
22 0 32 -9 55 -50 19 -33 35 -50 48 -50 24 0 24 1 -7 61 -25 50 -25 51 -6 67
26 23 34 54 23 85 -14 36 -45 50 -118 52 l-63 1 0 -133z m128 85 c7 -7 12 -21
12 -33 0 -31 -19 -45 -62 -45 l-38 0 0 45 0 45 38 0 c21 0 43 -5 50 -12z"/>
<path d="M3467 1543 c-3 -5 -4 -64 -3 -133 1 -122 2 -125 24 -128 22 -3 22 -3
22 132 0 128 -1 136 -19 136 -11 0 -22 -3 -24 -7z"/>
<path d="M3618 1534 c-37 -19 -58 -63 -58 -118 0 -91 36 -135 111 -136 50 0
79 21 98 73 34 89 -22 198 -101 197 -12 -1 -35 -7 -50 -16z m96 -46 c18 -25
22 -119 6 -148 -14 -26 -57 -34 -85 -16 -40 26 -45 134 -8 171 22 23 69 19 87
-7z"/>
<path d="M3678 1225 c-21 -29 -22 -35 -5 -35 14 0 57 41 57 53 0 17 -37 4 -52
-18z"/>
<path d="M2804 1171 c-45 -19 -64 -59 -64 -132 0 -58 4 -72 26 -98 22 -27 32
-31 74 -31 52 0 94 24 103 60 8 31 -37 27 -51 -5 -8 -18 -19 -25 -40 -25 -49
0 -65 21 -70 89 -6 82 13 113 66 109 27 -2 40 -9 47 -25 13 -29 56 -32 48 -4
-13 49 -90 83 -139 62z"/>
<path d="M3272 1160 c-39 -24 -52 -54 -52 -121 0 -55 20 -103 49 -119 53 -28
141 1 154 50 8 29 -35 27 -48 -2 -18 -41 -84 -36 -103 7 -26 57 -6 151 33 161
36 9 59 1 70 -24 6 -13 19 -22 32 -22 26 0 27 1 12 33 -13 29 -58 57 -91 57
-12 0 -38 -9 -56 -20z"/>
<path d="M3628 1164 c-38 -20 -58 -63 -58 -124 0 -88 36 -129 111 -130 47 0
72 17 98 67 27 54 1 157 -48 186 -35 21 -67 21 -103 1z m96 -46 c24 -34 21
-133 -4 -158 -46 -46 -98 -12 -107 70 -4 47 -2 59 17 83 27 34 72 37 94 5z"/>
<path d="M1490 1040 l0 -130 59 0 c49 0 65 4 90 26 39 33 54 83 40 142 -15 69
-48 92 -133 92 l-56 0 0 -130z m116 92 c36 -24 47 -125 17 -161 -11 -12 -32
-22 -53 -23 l-35 -3 -3 98 -3 97 33 0 c18 0 38 -4 44 -8z"/>
<path d="M1730 1040 l0 -130 90 0 c73 0 90 3 90 15 0 12 -14 15 -65 15 l-65 0
0 45 0 45 55 0 c42 0 55 3 55 15 0 12 -13 15 -55 15 l-55 0 0 40 0 40 60 0
c47 0 60 3 60 15 0 12 -16 15 -85 15 l-85 0 0 -130z"/>
<path d="M2040 1040 l0 -130 85 0 c68 0 85 3 85 15 0 10 -16 15 -62 17 l-63 3
0 40 0 40 53 3 c36 2 52 7 52 17 0 10 -16 15 -52 17 l-53 3 0 35 0 35 63 3
c46 2 62 7 62 17 0 12 -17 15 -85 15 l-85 0 0 -130z"/>
<path d="M2250 1040 l0 -130 55 0 c31 0 69 7 84 15 54 27 78 123 46 185 -24
46 -52 60 -122 60 l-63 0 0 -130z m124 87 c9 -7 21 -30 26 -52 17 -76 -10
-126 -72 -128 -26 -2 -32 2 -32 18 1 11 2 55 2 98 l2 77 28 0 c16 0 36 -6 46
-13z"/>
<path d="M2490 1081 c0 -138 19 -170 103 -171 38 0 53 5 72 25 23 23 25 31 25
130 0 98 -1 105 -20 105 -19 0 -20 -7 -20 -93 0 -107 -13 -137 -60 -137 -41 0
-50 23 -50 134 0 96 0 96 -25 96 -25 0 -25 -1 -25 -89z"/>
<path d="M3024 1073 c-20 -54 -43 -113 -50 -130 -12 -32 -12 -33 11 -33 17 0
26 8 34 30 9 28 13 30 65 30 52 0 55 -1 61 -30 5 -24 12 -30 32 -30 13 0 23 4
21 8 -1 5 -23 63 -48 130 -39 105 -48 122 -67 122 -18 0 -27 -15 -59 -97z m80
-10 c9 -26 16 -48 16 -50 0 -2 -17 -3 -38 -3 l-39 0 16 50 c9 27 19 50 23 50
3 0 13 -21 22 -47z"/>
<path d="M3470 1040 l0 -130 25 0 25 0 0 130 0 130 -25 0 -25 0 0 -130z"/>
<path d="M3840 1040 c0 -123 1 -130 20 -130 17 0 20 8 22 92 l3 92 58 -92 c48
-75 63 -92 83 -92 l24 0 0 130 0 130 -25 0 c-25 0 -25 -1 -25 -92 l0 -92 -60
92 c-43 66 -65 92 -80 92 -19 0 -20 -6 -20 -130z"/>
</g>
</svg>
